<svg version="1.1" viewBox="0.0 0.0 960.0 720.0" fill="none" stroke="none" stroke-linecap="square" stroke-miterlimit="10" xmlns:xlink="http://www.w3.org/1999/xlink" xmlns="http://www.w3.org/2000/svg"><clipPath id="p.0"><path d="m0 0l960.0 0l0 720.0l-960.0 0l0 -720.0z" clip-rule="nonzero"/></clipPath><g clip-path="url(#p.0)"><path fill="#000000" fill-opacity="0.0" d="m0 0l960.0 0l0 720.0l-960.0 0z" fill-rule="evenodd"/><path fill="#cfe2f3" d="m130.80052 513.33795l0 0c0 -18.357697 14.881836 -33.239532 33.239517 -33.239532l181.332 0c8.815674 0 17.270264 3.5020142 23.503876 9.735626c6.233612 6.2336426 9.735626 14.688232 9.735626 23.503906l0 132.95404c0 18.357666 -14.881836 33.239502 -33.239502 33.239502l-181.332 0l0 0c-18.357681 0 -33.239517 -14.881836 -33.239517 -33.239502z" fill-rule="evenodd"/><path stroke="#000000" stroke-width="1.0" stroke-linejoin="round" stroke-linecap="butt" d="m130.80052 513.33795l0 0c0 -18.357697 14.881836 -33.239532 33.239517 -33.239532l181.332 0c8.815674 0 17.270264 3.5020142 23.503876 9.735626c6.233612 6.2336426 9.735626 14.688232 9.735626 23.503906l0 132.95404c0 18.357666 -14.881836 33.239502 -33.239502 33.239502l-181.332 0l0 0c-18.357681 0 -33.239517 -14.881836 -33.239517 -33.239502z" fill-rule="evenodd"/><path fill="#d9d9d9" d="m168.19423 527.51337l0 0c0 -5.9404907 4.815674 -10.756165 10.756119 -10.756165l85.54288 0c2.8526917 0 5.588562 1.1332397 7.605713 3.1503906c2.0171814 2.017212 3.1503906 4.7530518 3.1503906 7.605774l0 43.023193c0 5.9404297 -4.815674 10.7561035 -10.7561035 10.7561035l-85.54288 0c-5.940445 0 -10.756119 -4.815674 -10.756119 -10.7561035z" fill-rule="evenodd"/><path stroke="#000000" stroke-width="1.0" stroke-linejoin="round" stroke-linecap="butt" d="m168.19423 527.51337l0 0c0 -5.9404907 4.815674 -10.756165 10.756119 -10.756165l85.54288 0c2.8526917 0 5.588562 1.1332397 7.605713 3.1503906c2.0171814 2.017212 3.1503906 4.7530518 3.1503906 7.605774l0 43.023193c0 5.9404297 -4.815674 10.7561035 -10.7561035 10.7561035l-85.54288 0c-5.940445 0 -10.756119 -4.815674 -10.756119 -10.7561035z" fill-rule="evenodd"/><path fill="#000000" d="m199.454 563.14496l0 -3.875l3.859375 0l0 3.875l-3.859375 0zm9.146194 1.65625l3.3125 0.5q0.203125 1.53125 1.140625 2.21875q1.265625 0.953125 3.453125 0.953125q2.359375 0 3.640625 -0.953125q1.296875 -0.9375 1.75 -2.640625q0.265625 -1.03125 0.234375 -4.359375q-2.21875 2.625 -5.546875 2.625q-4.125 0 -6.390625 -2.984375q-2.265625 -2.984375 -2.265625 -7.15625q0 -2.859375 1.03125 -5.28125q1.046875 -2.4375 3.015625 -3.75q1.96875 -1.328125 4.625 -1.328125q3.5625 0 5.859375 2.875l0 -2.421875l3.125 0l0 17.328125q0 4.6875 -0.953125 6.640625q-0.953125 1.953125 -3.015625 3.078125q-2.0625 1.140625 -5.078125 1.140625q-3.59375 0 -5.8125 -1.625q-2.203125 -1.609375 -2.125 -4.859375zm2.8125 -12.03125q0 3.9375 1.5625 5.75q1.578125 1.8125 3.9375 1.8125q2.34375 0 3.921875 -1.796875q1.578125 -1.8125 1.578125 -5.65625q0 -3.6875 -1.640625 -5.546875q-1.625 -1.875 -3.921875 -1.875q-2.265625 0 -3.859375 1.84375q-1.578125 1.84375 -1.578125 5.46875zm19.326889 -13.390625l0 -3.90625l3.40625 0l0 3.90625l-3.40625 0zm0 23.765625l0 -20.046875l3.40625 0l0 20.046875l-3.40625 0zm15.994431 -3.03125l0.484375 3.0q-1.4375 0.296875 -2.5625 0.296875q-1.84375 0 -2.875 -0.578125q-1.015625 -0.59375 -1.4375 -1.546875q-0.40625 -0.953125 -0.40625 -4.015625l0 -11.53125l-2.5 0l0 -2.640625l2.5 0l0 -4.96875l3.375 -2.03125l0 7.0l3.421875 0l0 2.640625l-3.421875 0l0 11.71875q0 1.453125 0.171875 1.875q0.1875 0.421875 0.59375 0.671875q0.40625 0.234375 1.15625 0.234375q0.578125 0 1.5 -0.125z" fill-rule="nonzero"/><path fill="#d9d9d9" d="m138.13124 235.69728l0 0c0 -11.608368 9.410431 -21.018799 21.018784 -21.018799l125.143524 0c5.574524 0 10.920746 2.2144775 14.862518 6.1562653c3.941803 3.9417877 6.1562805 9.287994 6.1562805 14.862534l0 84.07265c0 11.608368 -9.410431 21.018799 -21.018799 21.018799l-125.143524 0l0 0c-11.608353 0 -21.018784 -9.410431 -21.018784 -21.018799z" fill-rule="evenodd"/><path stroke="#000000" stroke-width="1.0" stroke-linejoin="round" stroke-linecap="butt" d="m138.13124 235.69728l0 0c0 -11.608368 9.410431 -21.018799 21.018784 -21.018799l125.143524 0c5.574524 0 10.920746 2.2144775 14.862518 6.1562653c3.941803 3.9417877 6.1562805 9.287994 6.1562805 14.862534l0 84.07265c0 11.608368 -9.410431 21.018799 -21.018799 21.018799l-125.143524 0l0 0c-11.608353 0 -21.018784 -9.410431 -21.018784 -21.018799z" fill-rule="evenodd"/><path fill="#000000" d="m169.35753 270.6136l0 -8.484375l-7.734375 -11.562485l3.234375 0l3.953125 6.0468597q1.09375 1.6875 2.03125 3.390625q0.90625 -1.578125 2.1875 -3.546875l3.890625 -5.8906097l3.078125 0l-8.0 11.562485l0 8.484375l-2.640625 0zm9.230469 -7.265625q0 -4.03125 2.234375 -5.96875q1.875 -1.6093597 4.5625 -1.6093597q3.0 0 4.890625 1.9687347q1.90625 1.953125 1.90625 5.40625q0 2.8125 -0.84375 4.421875q-0.828125 1.59375 -2.4375 2.484375q-1.609375 0.890625 -3.515625 0.890625q-3.046875 0 -4.921875 -1.953125q-1.875 -1.953125 -1.875 -5.640625zm2.515625 0q0 2.796875 1.21875 4.1875q1.21875 1.375 3.0625 1.375q1.84375 0 3.046875 -1.390625q1.21875 -1.390625 1.21875 -4.25q0 -2.6875 -1.21875 -4.078125q-1.21875 -1.390625 -3.046875 -1.390625q-1.84375 0 -3.0625 1.390625q-1.21875 1.375 -1.21875 4.15625zm23.478516 7.265625l0 -2.140625q-1.6875 2.46875 -4.609375 2.46875q-1.28125 0 -2.40625 -0.484375q-1.109375 -0.5 -1.65625 -1.234375q-0.53125 -0.75 -0.75 -1.84375q-0.140625 -0.71875 -0.140625 -2.296875l0 -8.984375l2.453125 0l0 8.046875q0 1.921875 0.15625 2.59375q0.234375 0.96875 0.984375 1.53125q0.75 0.546875 1.859375 0.546875q1.109375 0 2.078125 -0.5625q0.96875 -0.5625 1.375 -1.53125q0.40625 -0.984375 0.40625 -2.84375l0 -7.78125l2.453125 0l0 14.515625l-2.203125 0zm6.0253906 0l0 -14.515625l2.21875 0l0 2.203125q0.84375 -1.546875 1.5625 -2.03125q0.71875 -0.49998474 1.578125 -0.49998474q1.25 0 2.53125 0.78123474l-0.84375 2.296875q-0.90625 -0.546875 -1.796875 -0.546875q-0.8125 0 -1.453125 0.5q-0.640625 0.484375 -0.921875 1.34375q-0.40625 1.3125 -0.40625 2.859375l0 7.609375l-2.46875 0zm17.58789 0l0 -20.04686l13.515625 0l0 2.375l-10.859375 0l0 6.2031097l9.40625 0l0 2.359375l-9.40625 0l0 9.109375l-2.65625 0zm15.744141 -7.265625q0 -4.03125 2.234375 -5.96875q1.875 -1.6093597 4.5625 -1.6093597q3.0 0 4.890625 1.9687347q1.9062347 1.953125 1.9062347 5.40625q0 2.8125 -0.84375 4.421875q-0.82810974 1.59375 -2.4374847 2.484375q-1.609375 0.890625 -3.515625 0.890625q-3.046875 0 -4.921875 -1.953125q-1.875 -1.953125 -1.875 -5.640625zm2.515625 0q0 2.796875 1.21875 4.1875q1.21875 1.375 3.0625 1.375q1.84375 0 3.046875 -1.390625q1.21875 -1.390625 1.21875 -4.25q0 -2.6875 -1.21875 -4.078125q-1.21875 -1.390625 -3.046875 -1.390625q-1.84375 0 -3.0625 1.390625q-1.21875 1.375 -1.21875 4.15625zm13.931625 7.265625l0 -14.515625l2.21875 0l0 2.203125q0.84375 -1.546875 1.5625 -2.03125q0.71875 -0.49998474 1.578125 -0.49998474q1.25 0 2.53125 0.78123474l-0.84375 2.296875q-0.90625 -0.546875 -1.796875 -0.546875q-0.8125 0 -1.453125 0.5q-0.640625 0.484375 -0.921875 1.34375q-0.40625 1.3125 -0.40625 2.859375l0 7.609375l-2.46875 0zm9.371094 0l0 -20.04686l2.46875 0l0 11.437485l5.8125 -5.90625l3.1875 0l-5.546875 5.375l6.109375 9.140625l-3.03125 0l-4.796875 -7.421875l-1.734375 1.671875l0 5.75l-2.46875 0z" fill-rule="nonzero"/><path fill="#000000" d="m161.94933 297.34796q0 -4.03125 2.234375 -5.96875q1.875 -1.609375 4.5625 -1.609375q3.0 0 4.890625 1.96875q1.90625 1.953125 1.90625 5.40625q0 2.8125 -0.84375 4.421875q-0.828125 1.59375 -2.4375 2.484375q-1.609375 0.890625 -3.515625 0.890625q-3.046875 0 -4.921875 -1.953125q-1.875 -1.953125 -1.875 -5.640625zm2.515625 0q0 2.796875 1.21875 4.1875q1.21875 1.375 3.0625 1.375q1.84375 0 3.046875 -1.390625q1.21875 -1.390625 1.21875 -4.25q0 -2.6875 -1.21875 -4.078125q-1.21875 -1.390625 -3.046875 -1.390625q-1.84375 0 -3.0625 1.390625q-1.21875 1.375 -1.21875 4.15625zm13.962891 7.265625l0 -14.515625l2.21875 0l0 2.0625q1.59375 -2.390625 4.625 -2.390625q1.3125 0 2.40625 0.46875q1.109375 0.46875 1.65625 1.234375q0.546875 0.765625 0.765625 1.8125q0.125 0.6875 0.125 2.40625l0 8.921875l-2.453125 0l0 -8.828125q0 -1.515625 -0.296875 -2.25q-0.28125 -0.75 -1.015625 -1.1875q-0.734375 -0.453125 -1.71875 -0.453125q-1.5625 0 -2.703125 1.0q-1.140625 1.0 -1.140625 3.78125l0 7.9375l-2.46875 0zm33.054688 -7.859375l0 -2.359375l8.484375 -0.015625l0 7.4375q-1.953125 1.5625 -4.03125 2.359375q-2.078125 0.78125 -4.265625 0.78125q-2.953125 0 -5.375 -1.265625q-2.40625 -1.265625 -3.640625 -3.65625q-1.234375 -2.390625 -1.234375 -5.34375q0 -2.9375 1.21875 -5.46875q1.234375 -2.53125 3.53125 -3.765625q2.296875 -1.234375 5.296875 -1.234375q2.171875 0 3.921875 0.703125q1.765625 0.703125 2.75 1.96875q1.0 1.25 1.53125 3.28125l-2.390625 0.65625q-0.453125 -1.53125 -1.125 -2.40625q-0.671875 -0.875 -1.921875 -1.390625q-1.234375 -0.53125 -2.75 -0.53125q-1.828125 0 -3.15625 0.546875q-1.328125 0.546875 -2.140625 1.453125q-0.8125 0.90625 -1.265625 1.984375q-0.765625 1.859375 -0.765625 4.03125q0 2.6875 0.921875 4.5q0.9375 1.796875 2.6875 2.671875q1.765625 0.875 3.75 0.875q1.71875 0 3.359375 -0.65625q1.640625 -0.671875 2.5 -1.421875l0 -3.734375l-5.890625 0zm12.091797 -9.359375l0 -2.828125l2.46875 0l0 2.828125l-2.46875 0zm0 17.21875l0 -14.515625l2.46875 0l0 14.515625l-2.46875 0zm11.580078 -2.203125l0.359375 2.171875q-1.046875 0.21875 -1.859375 0.21875q-1.34375 0 -2.078125 -0.421875q-0.734375 -0.421875 -1.046875 -1.109375q-0.296875 -0.6875 -0.296875 -2.90625l0 -8.359375l-1.796875 0l0 -1.90625l1.796875 0l0 -3.59375l2.453125 -1.484375l0 5.078125l2.46875 0l0 1.90625l-2.46875 0l0 8.5q0 1.046875 0.125 1.34375q0.125 0.296875 0.421875 0.484375q0.296875 0.171875 0.84375 0.171875q0.40625 0 1.078125 -0.09375zm2.4042969 2.203125l0 -20.046875l2.46875 0l0 7.1875q1.71875 -1.984375 4.34375 -1.984375q1.609375 0 2.796875 0.640625q1.1875 0.625 1.703125 1.75q0.515625 1.125 0.515625 3.25l0 9.203125l-2.453125 0l0 -9.203125q0 -1.84375 -0.8125 -2.6875q-0.796875 -0.84375 -2.25 -0.84375q-1.09375 0 -2.0625 0.578125q-0.96875 0.5625 -1.375 1.53125q-0.40625 0.96875 -0.40625 2.6875l0 7.9375l-2.46875 0zm25.087875 0l0 -2.140625q-1.6875 2.46875 -4.609375 2.46875q-1.28125 0 -2.4062347 -0.484375q-1.109375 -0.5 -1.65625 -1.234375q-0.53125 -0.75 -0.75 -1.84375q-0.140625 -0.71875 -0.140625 -2.296875l0 -8.984375l2.453125 0l0 8.046875q0 1.921875 0.15625 2.59375q0.234375 0.96875 0.98435974 1.53125q0.75 0.546875 1.859375 0.546875q1.109375 0 2.078125 -0.5625q0.96875 -0.5625 1.375 -1.53125q0.40625 -0.984375 0.40625 -2.84375l0 -7.78125l2.453125 0l0 14.515625l-2.203125 0zm8.322266 0l-2.28125 0l0 -20.046875l2.46875 0l0 7.15625q1.5625 -1.953125 3.96875 -1.953125q1.34375 0 2.53125 0.546875q1.203125 0.53125 1.96875 1.515625q0.78125 0.96875 1.21875 2.359375q0.4375 1.375 0.4375 2.9375q0 3.734375 -1.84375 5.78125q-1.84375 2.03125 -4.421875 2.03125q-2.578125 0 -4.046875 -2.140625l0 1.8125zm-0.015625 -7.375q0 2.609375 0.703125 3.78125q1.171875 1.890625 3.140625 1.890625q1.625 0 2.796875 -1.390625q1.171875 -1.40625 1.171875 -4.1875q0 -2.84375 -1.125 -4.1875q-1.125 -1.359375 -2.734375 -1.359375q-1.609375 0 -2.78125 1.40625q-1.171875 1.40625 -1.171875 4.046875z" fill-rule="nonzero"/><path fill="#000000" fill-opacity="0.0" d="m161.5958 610.6076l184.75592 0l0 24.944885l-184.75592 0z" fill-rule="evenodd"/><path fill="#000000" d="m172.45517 643.9276l0 -18.125l2.390625 0l0 15.984375l8.9375 0l0 2.140625l-11.328125 0zm13.070679 -6.5625q0 -3.65625 2.03125 -5.40625q1.6875 -1.46875 4.125 -1.46875q2.703125 0 4.421875 1.78125q1.71875 1.78125 1.71875 4.90625q0 2.53125 -0.765625 3.984375q-0.75 1.453125 -2.203125 2.265625q-1.453125 0.796875 -3.171875 0.796875q-2.765625 0 -4.46875 -1.765625q-1.6875 -1.765625 -1.6875 -5.09375zm2.28125 0q0 2.515625 1.09375 3.78125q1.109375 1.25 2.78125 1.25q1.65625 0 2.75 -1.265625q1.109375 -1.265625 1.109375 -3.84375q0 -2.4375 -1.109375 -3.6875q-1.109375 -1.265625 -2.75 -1.265625q-1.671875 0 -2.78125 1.25q-1.09375 1.25 -1.09375 3.78125zm21.195679 1.75l2.1875 0.28125q-0.34375 2.265625 -1.828125 3.546875q-1.484375 1.28125 -3.625 1.28125q-2.703125 0 -4.34375 -1.765625q-1.640625 -1.765625 -1.640625 -5.046875q0 -2.125 0.703125 -3.71875q0.71875 -1.59375 2.15625 -2.390625q1.4375 -0.8125 3.125 -0.8125q2.140625 0 3.5 1.09375q1.359375 1.078125 1.75 3.0625l-2.171875 0.34375q-0.296875 -1.328125 -1.09375 -1.984375q-0.78125 -0.671875 -1.890625 -0.671875q-1.6875 0 -2.734375 1.203125q-1.046875 1.203125 -1.046875 3.8125q0 2.640625 1.015625 3.84375q1.015625 1.203125 2.640625 1.203125q1.3125 0 2.1875 -0.796875q0.875 -0.8125 1.109375 -2.484375zm12.6640625 3.1875q-1.234375 1.0625 -2.375 1.5q-1.140625 0.421875 -2.453125 0.421875q-2.171875 0 -3.328125 -1.046875q-1.15625 -1.0625 -1.15625 -2.71875q0 -0.953125 0.4375 -1.75q0.4375 -0.796875 1.140625 -1.28125q0.71875 -0.484375 1.609375 -0.734375q0.65625 -0.171875 1.96875 -0.328125q2.703125 -0.328125 3.96875 -0.765625q0.015625 -0.46875 0.015625 -0.59375q0 -1.359375 -0.625 -1.90625q-0.859375 -0.765625 -2.53125 -0.765625q-1.578125 0 -2.328125 0.5625q-0.75 0.546875 -1.109375 1.9375l-2.171875 -0.296875q0.296875 -1.390625 0.96875 -2.25q0.6875 -0.859375 1.96875 -1.328125q1.296875 -0.46875 2.984375 -0.46875q1.6875 0 2.734375 0.40625q1.046875 0.390625 1.546875 1.0q0.5 0.59375 0.6875 1.5q0.125 0.578125 0.125 2.0625l0 2.96875q0 3.09375 0.140625 3.921875q0.140625 0.828125 0.5625 1.578125l-2.328125 0q-0.34375 -0.6875 -0.453125 -1.625zm-0.1875 -4.96875q-1.203125 0.5 -3.625 0.84375q-1.375 0.203125 -1.953125 0.453125q-0.5625 0.234375 -0.875 0.71875q-0.296875 0.46875 -0.296875 1.046875q0 0.890625 0.671875 1.484375q0.671875 0.59375 1.96875 0.59375q1.28125 0 2.28125 -0.5625q1.0 -0.5625 1.484375 -1.53125q0.34375 -0.75 0.34375 -2.234375l0 -0.8125zm5.6644287 6.59375l0 -18.125l2.21875 0l0 18.125l-2.21875 0zm12.710953 0l0 -13.140625l1.984375 0l0 1.84375q0.625 -0.953125 1.640625 -1.546875q1.03125 -0.59375 2.34375 -0.59375q1.46875 0 2.390625 0.609375q0.9375 0.609375 1.328125 1.703125q1.546875 -2.3125 4.046875 -2.3125q1.953125 0 3.0000153 1.09375q1.0625 1.078125 1.0625 3.328125l0 9.015625l-2.2187653 0l0 -8.28125q0 -1.328125 -0.21875 -1.90625q-0.21875 -0.59375 -0.78125 -0.953125q-0.5625 -0.359375 -1.328125 -0.359375q-1.390625 0 -2.3125 0.921875q-0.90625 0.921875 -0.90625 2.953125l0 7.625l-2.234375 0l0 -8.53125q0 -1.484375 -0.546875 -2.21875q-0.53125 -0.75 -1.78125 -0.75q-0.9375 0 -1.734375 0.5q-0.796875 0.484375 -1.15625 1.4375q-0.359375 0.953125 -0.359375 2.75l0 6.8125l-2.21875 0zm29.661026 -1.625q-1.234375 1.0625 -2.375 1.5q-1.140625 0.421875 -2.453125 0.421875q-2.171875 0 -3.328125 -1.046875q-1.15625 -1.0625 -1.15625 -2.71875q0 -0.953125 0.4375 -1.75q0.4375 -0.796875 1.140625 -1.28125q0.71875 -0.484375 1.609375 -0.734375q0.65625 -0.171875 1.96875 -0.328125q2.703125 -0.328125 3.96875 -0.765625q0.015625 -0.46875 0.015625 -0.59375q0 -1.359375 -0.625 -1.90625q-0.859375 -0.765625 -2.53125 -0.765625q-1.578125 0 -2.328125 0.5625q-0.75 0.546875 -1.109375 1.9375l-2.171875 -0.296875q0.296875 -1.390625 0.96875 -2.25q0.6875 -0.859375 1.96875 -1.328125q1.296875 -0.46875 2.984375 -0.46875q1.6875 0 2.734375 0.40625q1.046875 0.390625 1.546875 1.0q0.5 0.59375 0.6875 1.5q0.125 0.578125 0.125 2.0625l0 2.96875q0 3.09375 0.140625 3.921875q0.140625 0.828125 0.5625 1.578125l-2.328125 0q-0.34375 -0.6875 -0.453125 -1.625zm-0.1875 -4.96875q-1.203125 0.5 -3.625 0.84375q-1.375 0.203125 -1.953125 0.453125q-0.5625 0.234375 -0.875 0.71875q-0.296875 0.46875 -0.296875 1.046875q0 0.890625 0.671875 1.484375q0.671875 0.59375 1.96875 0.59375q1.28125 0 2.28125 -0.5625q1.0 -0.5625 1.484375 -1.53125q0.34375 -0.75 0.34375 -2.234375l0 -0.8125zm14.273804 1.78125l2.1875 0.28125q-0.34375 2.265625 -1.828125 3.546875q-1.484375 1.28125 -3.625 1.28125q-2.703125 0 -4.34375 -1.765625q-1.640625 -1.765625 -1.640625 -5.046875q0 -2.125 0.703125 -3.71875q0.71875 -1.59375 2.15625 -2.390625q1.4375 -0.8125 3.125 -0.8125q2.140625 0 3.5 1.09375q1.359375 1.078125 1.75 3.0625l-2.171875 0.34375q-0.296875 -1.328125 -1.09375 -1.984375q-0.78125 -0.671875 -1.890625 -0.671875q-1.6875 0 -2.734375 1.203125q-1.046875 1.203125 -1.046875 3.8125q0 2.640625 1.015625 3.84375q1.015625 1.203125 2.640625 1.203125q1.3125 0 2.1875 -0.796875q0.875 -0.8125 1.109375 -2.484375zm4.1015625 4.8125l0 -18.125l2.21875 0l0 6.5q1.5625 -1.8125 3.9375 -1.8125q1.453125 0 2.53125 0.578125q1.078125 0.578125 1.546875 1.59375q0.46875 1.015625 0.46875 2.9375l0 8.328125l-2.234375 0l0 -8.328125q0 -1.671875 -0.734375 -2.421875q-0.71875 -0.765625 -2.03125 -0.765625q-1.0 0 -1.875 0.515625q-0.859375 0.515625 -1.234375 1.390625q-0.375 0.875 -0.375 2.421875l0 7.1875l-2.21875 0zm14.101929 -15.578125l0 -2.546875l2.21875 0l0 2.546875l-2.21875 0zm0 15.578125l0 -13.140625l2.21875 0l0 13.140625l-2.21875 0zm5.6114807 0l0 -13.140625l2.0 0l0 1.875q1.453125 -2.171875 4.1875 -2.171875q1.1875 0 2.171875 0.4375q1.0 0.421875 1.484375 1.125q0.5 0.6875 0.703125 1.640625q0.125 0.609375 0.125 2.15625l0 8.078125l-2.234375 0l0 -7.984375q0 -1.359375 -0.265625 -2.03125q-0.25 -0.6875 -0.90625 -1.078125q-0.65625 -0.40625 -1.546875 -0.40625q-1.421875 0 -2.46875 0.90625q-1.03125 0.890625 -1.03125 3.421875l0 7.171875l-2.21875 0zm23.070679 -4.234375l2.296875 0.296875q-0.53125 2.015625 -2.015625 3.125q-1.46875 1.109375 -3.75 1.109375q-2.890625 0 -4.578125 -1.765625q-1.6875 -1.78125 -1.6875 -4.984375q0 -3.3125 1.703125 -5.140625q1.71875 -1.84375 4.4375 -1.84375q2.640625 0 4.296875 1.796875q1.671875 1.796875 1.671875 5.046875q0 0.203125 -0.015625 0.59375l-9.78125 0q0.109375 2.171875 1.203125 3.328125q1.109375 1.140625 2.765625 1.140625q1.21875 0 2.078125 -0.640625q0.875 -0.640625 1.375 -2.0625zm-7.3125 -3.59375l7.34375 0q-0.15625 -1.65625 -0.84375 -2.484375q-1.0625 -1.28125 -2.75 -1.28125q-1.546875 0 -2.59375 1.03125q-1.03125 1.015625 -1.15625 2.734375z" fill-rule="nonzero"/><path fill="#000000" fill-opacity="0.0" d="m189.45932 339.32416l0 180.37793" fill-rule="evenodd"/><path stroke="#ff0000" stroke-width="3.0" stroke-linejoin="round" stroke-linecap="butt" d="m189.45932 357.32416l0 162.37793" fill-rule="evenodd"/><path fill="#ff0000" stroke="#ff0000" stroke-width="3.0" stroke-linecap="butt" d="m194.41452 357.32416l-4.9552 -13.614319l-4.9552 13.614319z" fill-rule="evenodd"/><path fill="#000000" fill-opacity="0.0" d="m246.6505 516.7572l0 -175.96848" fill-rule="evenodd"/><path stroke="#ff0000" stroke-width="3.0" stroke-linejoin="round" stroke-linecap="butt" d="m246.65051 498.75723l0 -157.9685" fill-rule="evenodd"/><path fill="#ff0000" stroke="#ff0000" stroke-width="3.0" stroke-linecap="butt" d="m241.69531 498.75723l4.9552 13.614288l4.9552 -13.614288z" fill-rule="evenodd"/><path fill="#000000" fill-opacity="0.0" d="m262.76117 395.04855l83.590546 0l0 55.716553l-83.590546 0z" fill-rule="evenodd"/><path fill="#000000" d="m273.51117 434.94543l0 -19.125l2.140625 0l0 1.796875q0.75 -1.046875 1.703125 -1.578125q0.953125 -0.53125 2.3125 -0.53125q1.765625 0 3.109375 0.921875q1.359375 0.90625 2.046875 2.5625q0.6875 1.65625 0.6875 3.640625q0 2.125 -0.765625 3.828125q-0.75 1.6875 -2.203125 2.59375q-1.453125 0.90625 -3.046875 0.90625q-1.171875 0 -2.109375 -0.484375q-0.921875 -0.5 -1.53125 -1.265625l0 6.734375l-2.34375 0zm2.125 -12.125q0 2.65625 1.078125 3.9375q1.09375 1.28125 2.625 1.28125q1.5625 0 2.671875 -1.3125q1.109375 -1.328125 1.109375 -4.109375q0 -2.640625 -1.09375 -3.953125q-1.078125 -1.3125 -2.59375 -1.3125q-1.484375 0 -2.640625 1.40625q-1.15625 1.390625 -1.15625 4.0625zm21.76242 6.828125l0 -2.03125q-1.609375 2.34375 -4.375 2.34375q-1.234375 0 -2.296875 -0.46875q-1.0625 -0.46875 -1.578125 -1.171875q-0.5 -0.71875 -0.71875 -1.75q-0.140625 -0.6875 -0.140625 -2.1875l0 -8.5625l2.34375 0l0 7.671875q0 1.828125 0.140625 2.46875q0.21875 0.921875 0.9375 1.453125q0.71875 0.53125 1.765625 0.53125q1.0625 0 1.984375 -0.53125q0.921875 -0.546875 1.296875 -1.46875q0.390625 -0.9375 0.390625 -2.71875l0 -7.40625l2.34375 0l0 13.828125l-2.09375 0zm5.715576 0l0 -19.078125l2.34375 0l0 19.078125l-2.34375 0zm5.9221497 0l0 -19.078125l2.34375 0l0 19.078125l-2.34375 0z" fill-rule="nonzero"/><path fill="#000000" fill-opacity="0.0" d="m95.480316 400.9147l83.590546 0l0 55.716522l-83.590546 0z" fill-rule="evenodd"/><path fill="#000000" d="m106.230316 440.81158l0 -19.125l2.140625 0l0 1.796875q0.75 -1.046875 1.703125 -1.578125q0.953125 -0.53125 2.3125 -0.53125q1.765625 0 3.109375 0.921875q1.359375 0.90625 2.046875 2.5625q0.6875 1.65625 0.6875 3.640625q0 2.125 -0.765625 3.828125q-0.75 1.6875 -2.203125 2.59375q-1.453125 0.90625 -3.046875 0.90625q-1.171875 0 -2.109375 -0.484375q-0.921875 -0.5 -1.53125 -1.265625l0 6.734375l-2.34375 0zm2.125 -12.125q0 2.65625 1.078125 3.9375q1.09375 1.28125 2.625 1.28125q1.5625 0 2.671875 -1.3125q1.109375 -1.328125 1.109375 -4.109375q0 -2.640625 -1.09375 -3.953125q-1.078125 -1.3125 -2.59375 -1.3125q-1.484375 0 -2.640625 1.40625q-1.15625 1.390625 -1.15625 4.0625zm21.762436 6.828125l0 -2.03125q-1.609375 2.34375 -4.375 2.34375q-1.234375 0 -2.296875 -0.46875q-1.0625 -0.46875 -1.578125 -1.171875q-0.5 -0.71875 -0.71875 -1.75q-0.140625 -0.6875 -0.140625 -2.1875l0 -8.5625l2.34375 0l0 7.671875q0 1.828125 0.140625 2.46875q0.21875 0.921875 0.9375 1.453125q0.71875 0.53125 1.765625 0.53125q1.0625 0 1.984375 -0.53125q0.921875 -0.546875 1.296875 -1.46875q0.390625 -0.9375 0.390625 -2.71875l0 -7.40625l2.34375 0l0 13.828125l-2.09375 0zm4.824936 -4.125l2.328125 -0.359375q0.1875 1.390625 1.078125 2.140625q0.890625 0.734375 2.5 0.734375q1.609375 0 2.390625 -0.65625q0.78125 -0.65625 0.78125 -1.546875q0 -0.796875 -0.6875 -1.25q-0.484375 -0.3125 -2.390625 -0.796875q-2.578125 -0.65625 -3.578125 -1.125q-1.0 -0.46875 -1.515625 -1.3125q-0.515625 -0.84375 -0.515625 -1.859375q0 -0.921875 0.421875 -1.703125q0.4375 -0.796875 1.15625 -1.3125q0.546875 -0.40625 1.484375 -0.6875q0.953125 -0.28125 2.03125 -0.28125q1.625 0 2.859375 0.46875q1.234375 0.46875 1.8125 1.28125q0.59375 0.796875 0.8125 2.140625l-2.296875 0.3125q-0.15625 -1.078125 -0.90625 -1.671875q-0.75 -0.59375 -2.109375 -0.59375q-1.609375 0 -2.3125 0.53125q-0.6875 0.53125 -0.6875 1.25q0 0.453125 0.296875 0.8125q0.28125 0.375 0.890625 0.625q0.359375 0.140625 2.078125 0.609375q2.484375 0.65625 3.46875 1.078125q0.984375 0.421875 1.53125 1.234375q0.5625 0.796875 0.5625 2.0q0 1.171875 -0.6875 2.21875q-0.671875 1.03125 -1.96875 1.59375q-1.28125 0.5625 -2.90625 0.5625q-2.703125 0 -4.125 -1.109375q-1.40625 -1.125 -1.796875 -3.328125zm14.265625 4.125l0 -19.078125l2.34375 0l0 6.84375q1.640625 -1.90625 4.140625 -1.90625q1.546875 0 2.671875 0.609375q1.140625 0.609375 1.625 1.671875q0.484375 1.0625 0.484375 3.09375l0 8.765625l-2.34375 0l0 -8.765625q0 -1.75 -0.765625 -2.546875q-0.75 -0.8125 -2.15625 -0.8125q-1.03125 0 -1.953125 0.546875q-0.921875 0.546875 -1.3125 1.46875q-0.390625 0.921875 -0.390625 2.546875l0 7.5625l-2.34375 0z" fill-rule="nonzero"/><path fill="#d9d9d9" d="m550.05774 234.09837l0 0c0 -11.608353 9.410461 -21.018784 21.018799 -21.018784l125.14349 0c5.574524 0 10.920776 2.2144775 14.862549 6.1562653c3.9417725 3.9417877 6.15625 9.287994 6.15625 14.862518l0 84.07265c0 11.608368 -9.4104 21.018799 -21.018799 21.018799l-125.14349 0l0 0c-11.608337 0 -21.018799 -9.410431 -21.018799 -21.018799z" fill-rule="evenodd"/><path stroke="#000000" stroke-width="1.0" stroke-linejoin="round" stroke-linecap="butt" d="m550.05774 234.09837l0 0c0 -11.608353 9.410461 -21.018784 21.018799 -21.018784l125.14349 0c5.574524 0 10.920776 2.2144775 14.862549 6.1562653c3.9417725 3.9417877 6.15625 9.287994 6.15625 14.862518l0 84.07265c0 11.608368 -9.4104 21.018799 -21.018799 21.018799l-125.14349 0l0 0c-11.608337 0 -21.018799 -9.410431 -21.018799 -21.018799z" fill-rule="evenodd"/><path fill="#000000" d="m586.7665 242.24908q0 -4.984375 2.671875 -7.8125q2.6875 -2.828125 6.921875 -2.828125q2.78125 0 5.0 1.328125q2.234375 1.328125 3.390625 3.703125q1.171875 2.375 1.171875 5.375q0 3.046875 -1.234375 5.453125q-1.21875 2.40625 -3.484375 3.65625q-2.25 1.234375 -4.859375 1.234375q-2.828125 0 -5.0625 -1.359375q-2.21875 -1.375 -3.375 -3.734375q-1.140625 -2.375 -1.140625 -5.015625zm2.734375 0.046875q0 3.625 1.9375 5.71875q1.953125 2.078125 4.890625 2.078125q3.0 0 4.921875 -2.109375q1.9375 -2.109375 1.9375 -5.984375q0 -2.4375 -0.828125 -4.265625q-0.8125 -1.828125 -2.40625 -2.828125q-1.59375 -1.0 -3.578125 -1.0q-2.8125 0 -4.84375 1.9375q-2.03125 1.921875 -2.03125 6.453125zm19.498047 9.71875l0 -14.515625l2.21875 0l0 2.203125q0.84375 -1.546875 1.5625 -2.03125q0.71875 -0.5 1.578125 -0.5q1.25 0 2.53125 0.78125l-0.84375 2.296875q-0.90625 -0.546875 -1.796875 -0.546875q-0.8125 0 -1.453125 0.5q-0.640625 0.484375 -0.921875 1.34375q-0.40625 1.3125 -0.40625 2.859375l0 7.609375l-2.46875 0zm9.371094 -17.21875l0 -2.828125l2.46875 0l0 2.828125l-2.46875 0zm0 17.21875l0 -14.515625l2.46875 0l0 14.515625l-2.46875 0zm5.751953 1.203125l2.390625 0.359375q0.15625 1.109375 0.84375 1.609375q0.90625 0.6875 2.5 0.6875q1.703125 0 2.625 -0.6875q0.9375 -0.6875 1.265625 -1.90625q0.203125 -0.765625 0.1875 -3.171875q-1.625 1.90625 -4.03125 1.90625q-2.984375 0 -4.625 -2.15625q-1.640625 -2.171875 -1.640625 -5.1875q0 -2.078125 0.75 -3.828125q0.75 -1.765625 2.171875 -2.71875q1.4375 -0.953125 3.359375 -0.953125q2.578125 0 4.25 2.078125l0 -1.75l2.265625 0l0 12.546875q0 3.390625 -0.703125 4.796875q-0.6875 1.421875 -2.1875 2.234375q-1.484375 0.828125 -3.671875 0.828125q-2.59375 0 -4.203125 -1.171875q-1.59375 -1.15625 -1.546875 -3.515625zm2.046875 -8.71875q0 2.859375 1.125 4.171875q1.140625 1.3125 2.84375 1.3125q1.703125 0 2.84375 -1.3125q1.15625 -1.3125 1.15625 -4.09375q0 -2.671875 -1.1875 -4.015625q-1.1875 -1.359375 -2.84375 -1.359375q-1.640625 0 -2.796875 1.34375q-1.140625 1.328125 -1.140625 3.953125zm13.994141 -9.703125l0 -2.828125l2.46875 0l0 2.828125l-2.46875 0zm0 17.21875l0 -14.515625l2.46875 0l0 14.515625l-2.46875 0zm6.205078 0l0 -14.515625l2.21875 0l0 2.0625q1.59375 -2.390625 4.625 -2.390625q1.3125 0 2.40625 0.46875q1.109375 0.46875 1.65625 1.234375q0.546875 0.765625 0.765625 1.8125q0.125 0.6875 0.125 2.40625l0 8.921875l-2.453125 0l0 -8.828125q0 -1.515625 -0.296875 -2.25q-0.28125 -0.75 -1.015625 -1.1875q-0.734375 -0.453125 -1.71875 -0.453125q-1.5625 0 -2.703125 1.0q-1.140625 1.0 -1.140625 3.78125l0 7.9375l-2.46875 0zm25.05664 -1.796875q-1.375 1.171875 -2.640625 1.65625q-1.265625 0.46875 -2.71875 0.46875q-2.390625 0 -3.671875 -1.171875q-1.28125 -1.171875 -1.28125 -2.984375q0 -1.0625 0.484375 -1.9375q0.484375 -0.890625 1.265625 -1.421875q0.796875 -0.53125 1.78125 -0.8125q0.71875 -0.1875 2.1875 -0.375q2.96875 -0.34375 4.375 -0.84375q0.015625 -0.5 0.015625 -0.640625q0 -1.5 -0.6875 -2.125q-0.953125 -0.828125 -2.8125 -0.828125q-1.734375 0 -2.5625 0.609375q-0.828125 0.609375 -1.21875 2.15625l-2.40625 -0.328125q0.328125 -1.546875 1.078125 -2.5q0.75 -0.953125 2.171875 -1.453125q1.421875 -0.515625 3.296875 -0.515625q1.859375 0 3.015625 0.4375q1.171875 0.4375 1.71875 1.109375q0.546875 0.65625 0.765625 1.65625q0.125 0.640625 0.125 2.28125l0 3.28125q0 3.421875 0.15625 4.34375q0.15625 0.90625 0.625 1.734375l-2.578125 0q-0.375 -0.765625 -0.484375 -1.796875zm-0.21875 -5.484375q-1.328125 0.546875 -4.015625 0.921875q-1.515625 0.21875 -2.140625 0.5q-0.625 0.265625 -0.96875 0.796875q-0.34375 0.515625 -0.34375 1.171875q0 0.984375 0.734375 1.640625q0.75 0.65625 2.1875 0.65625q1.421875 0 2.53125 -0.625q1.109375 -0.625 1.625 -1.703125q0.390625 -0.84375 0.390625 -2.46875l0 -0.890625zm6.2597656 7.28125l0 -20.046875l2.453125 0l0 20.046875l-2.453125 0z" fill-rule="nonzero"/><path fill="#000000" d="m582.9208 286.0147l0 -20.046875l8.890625 0q2.671875 0 4.0625 0.546875q1.40625 0.53125 2.234375 1.90625q0.828125 1.359375 0.828125 3.015625q0 2.140625 -1.375 3.609375q-1.375 1.453125 -4.265625 1.84375q1.046875 0.515625 1.59375 1.0q1.171875 1.0625 2.203125 2.671875l3.484375 5.453125l-3.328125 0l-2.65625 -4.171875q-1.15625 -1.796875 -1.90625 -2.75q-0.75 -0.96875 -1.359375 -1.34375q-0.59375 -0.390625 -1.203125 -0.546875q-0.453125 -0.09375 -1.46875 -0.09375l-3.078125 0l0 8.90625l-2.65625 0zm2.65625 -11.203125l5.703125 0q1.8125 0 2.828125 -0.375q1.03125 -0.375 1.5625 -1.203125q0.53125 -0.828125 0.53125 -1.796875q0 -1.421875 -1.03125 -2.328125q-1.03125 -0.921875 -3.25 -0.921875l-6.34375 0l0 6.625zm27.142578 6.53125l2.546875 0.3125q-0.59375 2.21875 -2.234375 3.453125q-1.625 1.234375 -4.15625 1.234375q-3.171875 0 -5.046875 -1.953125q-1.859375 -1.96875 -1.859375 -5.515625q0 -3.65625 1.875 -5.671875q1.890625 -2.03125 4.90625 -2.03125q2.90625 0 4.75 1.984375q1.84375 1.96875 1.84375 5.578125q0 0.21875 -0.015625 0.65625l-10.828125 0q0.140625 2.390625 1.359375 3.65625q1.21875 1.265625 3.03125 1.265625q1.359375 0 2.3125 -0.703125q0.953125 -0.71875 1.515625 -2.265625zm-8.078125 -3.984375l8.109375 0q-0.15625 -1.828125 -0.921875 -2.75q-1.1875 -1.421875 -3.0625 -1.421875q-1.6875 0 -2.84375 1.140625q-1.15625 1.125 -1.28125 3.03125zm13.712891 14.21875l0 -20.078125l2.25 0l0 1.875q0.78125 -1.09375 1.78125 -1.640625q1.0 -0.5625 2.421875 -0.5625q1.859375 0 3.28125 0.953125q1.421875 0.953125 2.140625 2.703125q0.734375 1.734375 0.734375 3.8125q0 2.234375 -0.796875 4.015625q-0.796875 1.78125 -2.328125 2.734375q-1.53125 0.953125 -3.203125 0.953125q-1.234375 0 -2.21875 -0.515625q-0.96875 -0.53125 -1.59375 -1.3125l0 7.0625l-2.46875 0zm2.234375 -12.734375q0 2.796875 1.125 4.140625q1.140625 1.328125 2.75 1.328125q1.640625 0 2.8125 -1.375q1.171875 -1.390625 1.171875 -4.3125q0 -2.765625 -1.140625 -4.140625q-1.140625 -1.390625 -2.734375 -1.390625q-1.5625 0 -2.78125 1.46875q-1.203125 1.46875 -1.203125 4.28125zm12.431641 -0.09375q0 -4.03125 2.234375 -5.96875q1.875 -1.609375 4.5625 -1.609375q3.0 0 4.890625 1.96875q1.90625 1.953125 1.90625 5.40625q0 2.8125 -0.84375 4.421875q-0.828125 1.59375 -2.4375 2.484375q-1.609375 0.890625 -3.515625 0.890625q-3.046875 0 -4.921875 -1.953125q-1.875 -1.953125 -1.875 -5.640625zm2.515625 0q0 2.796875 1.21875 4.1875q1.21875 1.375 3.0625 1.375q1.84375 0 3.046875 -1.390625q1.21875 -1.390625 1.21875 -4.25q0 -2.6875 -1.21875 -4.078125q-1.21875 -1.390625 -3.046875 -1.390625q-1.84375 0 -3.0625 1.390625q-1.21875 1.375 -1.21875 4.15625zm20.835938 0q0 -4.03125 2.234375 -5.96875q1.875 -1.609375 4.5625 -1.609375q3.0 0 4.890625 1.96875q1.90625 1.953125 1.90625 5.40625q0 2.8125 -0.84375 4.421875q-0.828125 1.59375 -2.4375 2.484375q-1.609375 0.890625 -3.515625 0.890625q-3.046875 0 -4.921875 -1.953125q-1.875 -1.953125 -1.875 -5.640625zm2.515625 0q0 2.796875 1.21875 4.1875q1.21875 1.375 3.0625 1.375q1.84375 0 3.046875 -1.390625q1.21875 -1.390625 1.21875 -4.25q0 -2.6875 -1.21875 -4.078125q-1.21875 -1.390625 -3.046875 -1.390625q-1.84375 0 -3.0625 1.390625q-1.21875 1.375 -1.21875 4.15625zm13.962891 7.265625l0 -14.515625l2.21875 0l0 2.0625q1.59375 -2.390625 4.625 -2.390625q1.3125 0 2.40625 0.46875q1.109375 0.46875 1.65625 1.234375q0.546875 0.765625 0.765625 1.8125q0.125 0.6875 0.125 2.40625l0 8.921875l-2.453125 0l0 -8.828125q0 -1.515625 -0.296875 -2.25q-0.28125 -0.75 -1.015625 -1.1875q-0.734375 -0.453125 -1.71875 -0.453125q-1.5625 0 -2.703125 1.0q-1.140625 1.0 -1.140625 3.78125l0 7.9375l-2.46875 0z" fill-rule="nonzero"/><path fill="#000000" d="m603.94714 312.15533l0 -2.359375l8.484375 -0.015625l0 7.4375q-1.953125 1.5625 -4.03125 2.359375q-2.078125 0.78125 -4.265625 0.78125q-2.953125 0 -5.375 -1.265625q-2.40625 -1.265625 -3.640625 -3.65625q-1.234375 -2.390625 -1.234375 -5.34375q0 -2.9375 1.21875 -5.46875q1.234375 -2.53125 3.53125 -3.765625q2.296875 -1.234375 5.296875 -1.234375q2.171875 0 3.921875 0.703125q1.765625 0.703125 2.75 1.96875q1.0 1.25 1.53125 3.28125l-2.390625 0.65625q-0.453125 -1.53125 -1.125 -2.40625q-0.671875 -0.875 -1.921875 -1.390625q-1.234375 -0.53125 -2.75 -0.53125q-1.828125 0 -3.15625 0.546875q-1.328125 0.546875 -2.140625 1.453125q-0.8125 0.90625 -1.265625 1.984375q-0.765625 1.859375 -0.765625 4.03125q0 2.6875 0.921875 4.5q0.9375 1.796875 2.6875 2.671875q1.765625 0.875 3.75 0.875q1.71875 0 3.359375 -0.65625q1.640625 -0.671875 2.5 -1.421875l0 -3.734375l-5.890625 0zm12.091797 -9.359375l0 -2.828125l2.46875 0l0 2.828125l-2.46875 0zm0 17.21875l0 -14.515625l2.46875 0l0 14.515625l-2.46875 0zm11.580078 -2.203125l0.359375 2.171875q-1.046875 0.21875 -1.859375 0.21875q-1.34375 0 -2.078125 -0.421875q-0.734375 -0.421875 -1.046875 -1.109375q-0.296875 -0.6875 -0.296875 -2.90625l0 -8.359375l-1.796875 0l0 -1.90625l1.796875 0l0 -3.59375l2.453125 -1.484375l0 5.078125l2.46875 0l0 1.90625l-2.46875 0l0 8.5q0 1.046875 0.125 1.34375q0.125 0.296875 0.421875 0.484375q0.296875 0.171875 0.84375 0.171875q0.40625 0 1.078125 -0.09375zm2.4042969 2.203125l0 -20.046875l2.46875 0l0 7.1875q1.71875 -1.984375 4.34375 -1.984375q1.609375 0 2.796875 0.640625q1.1875 0.625 1.703125 1.75q0.515625 1.125 0.515625 3.25l0 9.203125l-2.453125 0l0 -9.203125q0 -1.84375 -0.8125 -2.6875q-0.796875 -0.84375 -2.25 -0.84375q-1.09375 0 -2.0625 0.578125q-0.96875 0.5625 -1.375 1.53125q-0.40625 0.96875 -0.40625 2.6875l0 7.9375l-2.46875 0zm25.08789 0l0 -2.140625q-1.6875 2.46875 -4.609375 2.46875q-1.28125 0 -2.40625 -0.484375q-1.109375 -0.5 -1.65625 -1.234375q-0.53125 -0.75 -0.75 -1.84375q-0.140625 -0.71875 -0.140625 -2.296875l0 -8.984375l2.453125 0l0 8.046875q0 1.921875 0.15625 2.59375q0.234375 0.96875 0.984375 1.53125q0.75 0.546875 1.859375 0.546875q1.109375 0 2.078125 -0.5625q0.96875 -0.5625 1.375 -1.53125q0.40625 -0.984375 0.40625 -2.84375l0 -7.78125l2.453125 0l0 14.515625l-2.203125 0zm8.322266 0l-2.28125 0l0 -20.046875l2.46875 0l0 7.15625q1.5625 -1.953125 3.96875 -1.953125q1.34375 0 2.53125 0.546875q1.203125 0.53125 1.96875 1.515625q0.78125 0.96875 1.21875 2.359375q0.4375 1.375 0.4375 2.9375q0 3.734375 -1.84375 5.78125q-1.84375 2.03125 -4.421875 2.03125q-2.578125 0 -4.046875 -2.140625l0 1.8125zm-0.015625 -7.375q0 2.609375 0.703125 3.78125q1.171875 1.890625 3.140625 1.890625q1.625 0 2.796875 -1.390625q1.171875 -1.40625 1.171875 -4.1875q0 -2.84375 -1.125 -4.1875q-1.125 -1.359375 -2.734375 -1.359375q-1.609375 0 -2.78125 1.40625q-1.171875 1.40625 -1.171875 4.046875z" fill-rule="nonzero"/><path fill="#000000" fill-opacity="0.0" d="m560.44617 337.84384l-285.19684 211.18112" fill-rule="evenodd"/><path stroke="#ff0000" stroke-width="3.0" stroke-linejoin="round" stroke-linecap="butt" d="m560.44617 337.84384l-270.73096 200.46945" fill-rule="evenodd"/><path fill="#ff0000" stroke="#ff0000" stroke-width="3.0" stroke-linecap="butt" d="m286.76642 534.33105l-7.992462 12.083984l13.890045 -4.119446z" fill-rule="evenodd"/><path fill="#000000" fill-opacity="0.0" d="m305.31235 277.7336l244.75589 -1.6063232" fill-rule="evenodd"/><path stroke="#ff0000" stroke-width="3.0" stroke-linejoin="round" stroke-linecap="butt" d="m305.31235 277.73358l226.75626 -1.4881592" fill-rule="evenodd"/><path fill="#ff0000" stroke="#ff0000" stroke-width="3.0" stroke-linecap="butt" d="m532.10114 281.20053l13.581482 -5.044464l-13.646484 -4.8657227z" fill-rule="evenodd"/><path fill="#000000" fill-opacity="0.0" d="m338.8819 213.08006l184.75592 0l0 55.716537l-184.75592 0z" fill-rule="evenodd"/><path fill="#000000" d="m349.9444 247.68005l0 -19.078125l7.1875 0q1.90625 0 2.90625 0.171875q1.40625 0.234375 2.359375 0.90625q0.953125 0.65625 1.53125 1.84375q0.578125 1.171875 0.578125 2.59375q0 2.4375 -1.5625 4.125q-1.546875 1.6875 -5.59375 1.6875l-4.890625 0l0 7.75l-2.515625 0zm2.515625 -10.015625l4.9375 0q2.453125 0 3.46875 -0.90625q1.03125 -0.90625 1.03125 -2.5625q0 -1.203125 -0.609375 -2.046875q-0.59375 -0.859375 -1.59375 -1.125q-0.625 -0.171875 -2.34375 -0.171875l-4.890625 0l0 6.8125zm24.013885 10.015625l0 -2.03125q-1.609375 2.34375 -4.375 2.34375q-1.234375 0 -2.296875 -0.46875q-1.0625 -0.46875 -1.578125 -1.171875q-0.5 -0.71875 -0.71875 -1.75q-0.140625 -0.6875 -0.140625 -2.1875l0 -8.5625l2.34375 0l0 7.671875q0 1.828125 0.140625 2.46875q0.21875 0.921875 0.9375 1.453125q0.71875 0.53125 1.765625 0.53125q1.0625 0 1.984375 -0.53125q0.921875 -0.546875 1.296875 -1.46875q0.390625 -0.9375 0.390625 -2.71875l0 -7.40625l2.34375 0l0 13.828125l-2.09375 0zm5.7155457 0l0 -19.078125l2.34375 0l0 19.078125l-2.34375 0zm5.92218 0l0 -19.078125l2.34375 0l0 19.078125l-2.34375 0zm13.359375 0l0 -13.828125l2.109375 0l0 2.09375q0.796875 -1.46875 1.484375 -1.9375q0.6875 -0.46875 1.5 -0.46875q1.1875 0 2.40625 0.765625l-0.796875 2.171875q-0.859375 -0.515625 -1.71875 -0.515625q-0.765625 0 -1.390625 0.46875q-0.609375 0.453125 -0.859375 1.28125q-0.390625 1.25 -0.390625 2.734375l0 7.234375l-2.34375 0zm18.361115 -4.453125l2.421875 0.296875q-0.578125 2.125 -2.125 3.296875q-1.546875 1.171875 -3.953125 1.171875q-3.03125 0 -4.8125 -1.859375q-1.78125 -1.875 -1.78125 -5.25q0 -3.484375 1.796875 -5.40625q1.796875 -1.9375 4.671875 -1.9375q2.765625 0 4.515625 1.890625q1.765625 1.890625 1.765625 5.3125q0 0.203125 -0.015625 0.625l-10.3125 0q0.140625 2.28125 1.296875 3.5q1.15625 1.203125 2.890625 1.203125q1.28125 0 2.1875 -0.671875q0.921875 -0.6875 1.453125 -2.171875zm-7.6875 -3.78125l7.71875 0q-0.15625 -1.75 -0.890625 -2.625q-1.125 -1.34375 -2.90625 -1.34375q-1.609375 0 -2.71875 1.078125q-1.09375 1.078125 -1.203125 2.890625zm21.85617 13.53125l0 -6.765625q-0.546875 0.765625 -1.53125 1.28125q-0.96875 0.5 -2.078125 0.5q-2.46875 0 -4.25 -1.96875q-1.765625 -1.96875 -1.765625 -5.390625q0 -2.078125 0.71875 -3.734375q0.71875 -1.65625 2.09375 -2.5q1.375 -0.859375 3.015625 -0.859375q2.5625 0 4.03125 2.171875l0 -1.859375l2.109375 0l0 19.125l-2.34375 0zm-7.21875 -12.25q0 2.671875 1.109375 4.015625q1.125 1.328125 2.6875 1.328125q1.5 0 2.578125 -1.265625q1.078125 -1.28125 1.078125 -3.859375q0 -2.765625 -1.140625 -4.15625q-1.125 -1.390625 -2.671875 -1.390625q-1.515625 0 -2.578125 1.296875q-1.0625 1.28125 -1.0625 4.03125zm22.293701 6.953125l0 -2.03125q-1.609375 2.34375 -4.375 2.34375q-1.234375 0 -2.296875 -0.46875q-1.0625 -0.46875 -1.578125 -1.171875q-0.5 -0.71875 -0.71875 -1.75q-0.140625 -0.6875 -0.140625 -2.1875l0 -8.5625l2.34375 0l0 7.671875q0 1.828125 0.140625 2.46875q0.21875 0.921875 0.9375 1.453125q0.71875 0.53125 1.765625 0.53125q1.0625 0 1.984375 -0.53125q0.921875 -0.546875 1.296875 -1.46875q0.390625 -0.9375 0.390625 -2.71875l0 -7.40625l2.34375 0l0 13.828125l-2.09375 0zm15.231171 -4.453125l2.421875 0.296875q-0.578125 2.125 -2.125 3.296875q-1.546875 1.171875 -3.953125 1.171875q-3.03125 0 -4.8125 -1.859375q-1.78125 -1.875 -1.78125 -5.25q0 -3.484375 1.796875 -5.40625q1.796875 -1.9375 4.671875 -1.9375q2.765625 0 4.515625 1.890625q1.765625 1.890625 1.765625 5.3125q0 0.203125 -0.015625 0.625l-10.3125 0q0.140625 2.28125 1.296875 3.5q1.15625 1.203125 2.890625 1.203125q1.28125 0 2.1875 -0.671875q0.921875 -0.6875 1.453125 -2.171875zm-7.6875 -3.78125l7.71875 0q-0.15625 -1.75 -0.890625 -2.625q-1.125 -1.34375 -2.90625 -1.34375q-1.609375 0 -2.71875 1.078125q-1.09375 1.078125 -1.203125 2.890625zm12.106201 4.109375l2.328125 -0.359375q0.1875 1.390625 1.078125 2.140625q0.890625 0.734375 2.5 0.734375q1.609375 0 2.390625 -0.65625q0.78125 -0.65625 0.78125 -1.546875q0 -0.796875 -0.6875 -1.25q-0.484375 -0.3125 -2.390625 -0.796875q-2.578125 -0.65625 -3.578125 -1.125q-1.0 -0.46875 -1.515625 -1.3125q-0.515625 -0.84375 -0.515625 -1.859375q0 -0.921875 0.421875 -1.703125q0.4375 -0.796875 1.15625 -1.3125q0.546875 -0.40625 1.484375 -0.6875q0.953125 -0.28125 2.03125 -0.28125q1.625 0 2.859375 0.46875q1.234375 0.46875 1.8125 1.28125q0.59375 0.796875 0.8125 2.140625l-2.296875 0.3125q-0.15625 -1.078125 -0.90625 -1.671875q-0.75 -0.59375 -2.109375 -0.59375q-1.609375 0 -2.3125 0.53125q-0.6875 0.53125 -0.6875 1.25q0 0.453125 0.296875 0.8125q0.28125 0.375 0.890625 0.625q0.359375 0.140625 2.078125 0.609375q2.484375 0.65625 3.46875 1.078125q0.984375 0.421875 1.53125 1.234375q0.5625 0.796875 0.5625 2.0q0 1.171875 -0.6875 2.21875q-0.671875 1.03125 -1.96875 1.59375q-1.28125 0.5625 -2.90625 0.5625q-2.703125 0 -4.125 -1.109375q-1.40625 -1.125 -1.796875 -3.328125zm19.390625 2.03125l0.328125 2.0625q-0.984375 0.21875 -1.765625 0.21875q-1.265625 0 -1.96875 -0.40625q-0.703125 -0.40625 -1.0 -1.0625q-0.28125 -0.65625 -0.28125 -2.765625l0 -7.953125l-1.71875 0l0 -1.828125l1.71875 0l0 -3.421875l2.328125 -1.40625l0 4.828125l2.359375 0l0 1.828125l-2.359375 0l0 8.078125q0 1.0 0.125 1.296875q0.125 0.28125 0.40625 0.453125q0.28125 0.171875 0.796875 0.171875q0.390625 0 1.03125 -0.09375z" fill-rule="nonzero"/><path fill="#000000" fill-opacity="0.0" d="m460.46457 415.5761l83.590546 0l0 55.716553l-83.590546 0z" fill-rule="evenodd"/><path fill="#000000" d="m471.21457 455.473l0 -19.125l2.140625 0l0 1.796875q0.75 -1.046875 1.703125 -1.578125q0.953125 -0.53125 2.3125 -0.53125q1.765625 0 3.109375 0.921875q1.359375 0.90625 2.046875 2.5625q0.6875 1.65625 0.6875 3.640625q0 2.125 -0.765625 3.828125q-0.75 1.6875 -2.203125 2.59375q-1.453125 0.90625 -3.046875 0.90625q-1.171875 0 -2.109375 -0.484375q-0.921875 -0.5 -1.53125 -1.265625l0 6.734375l-2.34375 0zm2.125 -12.125q0 2.65625 1.078125 3.9375q1.09375 1.28125 2.625 1.28125q1.5625 0 2.671875 -1.3125q1.109375 -1.328125 1.109375 -4.109375q0 -2.640625 -1.09375 -3.953125q-1.078125 -1.3125 -2.59375 -1.3125q-1.484375 0 -2.640625 1.40625q-1.15625 1.390625 -1.15625 4.0625zm21.76242 6.828125l0 -2.03125q-1.609375 2.34375 -4.375 2.34375q-1.234375 0 -2.296875 -0.46875q-1.0625 -0.46875 -1.578125 -1.171875q-0.5 -0.71875 -0.71875 -1.75q-0.140625 -0.6875 -0.140625 -2.1875l0 -8.5625l2.34375 0l0 7.671875q0 1.828125 0.140625 2.46875q0.21875 0.921875 0.9375 1.453125q0.71875 0.53125 1.765625 0.53125q1.0625 0 1.984375 -0.53125q0.921875 -0.546875 1.296875 -1.46875q0.390625 -0.9375 0.390625 -2.71875l0 -7.40625l2.34375 0l0 13.828125l-2.09375 0zm5.715576 0l0 -19.078125l2.34375 0l0 19.078125l-2.34375 0zm5.9221497 0l0 -19.078125l2.34375 0l0 19.078125l-2.34375 0z" fill-rule="nonzero"/><path fill="#000000" fill-opacity="0.0" d="m168.19423 151.62599l131.96849 0l0 35.181107l-131.96849 0z" fill-rule="evenodd"/><path fill="#000000" d="m178.13173 180.24036q0 -4.03125 2.234375 -5.96875q1.875 -1.609375 4.5625 -1.609375q3.0 0 4.890625 1.96875q1.90625 1.953125 1.90625 5.40625q0 2.8125 -0.84375 4.421875q-0.828125 1.59375 -2.4375 2.484375q-1.609375 0.890625 -3.515625 0.890625q-3.046875 0 -4.921875 -1.953125q-1.875 -1.953125 -1.875 -5.640625zm2.515625 0q0 2.796875 1.21875 4.1875q1.21875 1.375 3.0625 1.375q1.84375 0 3.046875 -1.390625q1.21875 -1.390625 1.21875 -4.25q0 -2.6875 -1.21875 -4.078125q-1.21875 -1.390625 -3.046875 -1.390625q-1.84375 0 -3.0625 1.390625q-1.21875 1.375 -1.21875 4.15625zm13.931641 7.265625l0 -14.515625l2.21875 0l0 2.203125q0.84375 -1.546875 1.5625 -2.03125q0.71875 -0.5 1.578125 -0.5q1.25 0 2.53125 0.78125l-0.84375 2.296875q-0.90625 -0.546875 -1.796875 -0.546875q-0.8125 0 -1.453125 0.5q-0.640625 0.484375 -0.921875 1.34375q-0.40625 1.3125 -0.40625 2.859375l0 7.609375l-2.46875 0zm9.371094 -17.21875l0 -2.828125l2.46875 0l0 2.828125l-2.46875 0zm0 17.21875l0 -14.515625l2.46875 0l0 14.515625l-2.46875 0zm5.751953 1.203125l2.390625 0.359375q0.15625 1.109375 0.84375 1.609375q0.90625 0.6875 2.5 0.6875q1.703125 0 2.625 -0.6875q0.9375 -0.6875 1.265625 -1.90625q0.203125 -0.765625 0.1875 -3.171875q-1.625 1.90625 -4.03125 1.90625q-2.984375 0 -4.625 -2.15625q-1.640625 -2.171875 -1.640625 -5.1875q0 -2.078125 0.75 -3.828125q0.75 -1.765625 2.171875 -2.71875q1.4375 -0.953125 3.359375 -0.953125q2.578125 0 4.25 2.078125l0 -1.75l2.265625 0l0 12.546875q0 3.390625 -0.703125 4.796875q-0.6875 1.421875 -2.1875 2.234375q-1.484375 0.828125 -3.671875 0.828125q-2.59375 0 -4.203125 -1.171875q-1.59375 -1.15625 -1.546875 -3.515625zm2.046875 -8.71875q0 2.859375 1.125 4.171875q1.140625 1.3125 2.84375 1.3125q1.703125 0 2.84375 -1.3125q1.15625 -1.3125 1.15625 -4.09375q0 -2.671875 -1.1875 -4.015625q-1.1875 -1.359375 -2.84375 -1.359375q-1.640625 0 -2.796875 1.34375q-1.140625 1.328125 -1.140625 3.953125zm13.994141 -9.703125l0 -2.828125l2.46875 0l0 2.828125l-2.46875 0zm0 17.21875l0 -14.515625l2.46875 0l0 14.515625l-2.46875 0zm6.205078 0l0 -14.515625l2.21875 0l0 2.0625q1.59375 -2.390625 4.625 -2.390625q1.3125 0 2.40625 0.46875q1.109375 0.46875 1.65625 1.234375q0.546875 0.765625 0.765625 1.8125q0.125 0.6875 0.125 2.40625l0 8.921875l-2.453125 0l0 -8.828125q0 -1.515625 -0.296875 -2.25q-0.28125 -0.75 -1.015625 -1.1875q-0.734375 -0.453125 -1.71875 -0.453125q-1.5625 0 -2.703125 1.0q-1.140625 1.0 -1.140625 3.78125l0 7.9375l-2.46875 0z" fill-rule="nonzero"/><path fill="#000000" fill-opacity="0.0" d="m567.66406 152.96068l167.18109 0l0 35.181107l-167.18109 0z" fill-rule="evenodd"/><path fill="#000000" d="m588.02344 188.84068l0 -2.140625q-1.6875 2.46875 -4.609375 2.46875q-1.28125 0 -2.40625 -0.484375q-1.109375 -0.5 -1.65625 -1.234375q-0.53125 -0.75 -0.75 -1.84375q-0.140625 -0.71875 -0.140625 -2.296875l0 -8.984375l2.453125 0l0 8.046875q0 1.921875 0.15625 2.59375q0.234375 0.96875 0.984375 1.53125q0.75 0.546875 1.859375 0.546875q1.109375 0 2.078125 -0.5625q0.96875 -0.5625 1.375 -1.53125q0.40625 -0.984375 0.40625 -2.84375l0 -7.78125l2.453125 0l0 14.515625l-2.203125 0zm6.0566406 5.5625l0 -20.078125l2.25 0l0 1.875q0.78125 -1.09375 1.78125 -1.640625q1.0 -0.5625 2.421875 -0.5625q1.859375 0 3.28125 0.953125q1.421875 0.953125 2.140625 2.703125q0.734375 1.734375 0.734375 3.8125q0 2.234375 -0.796875 4.015625q-0.796875 1.78125 -2.328125 2.734375q-1.53125 0.953125 -3.203125 0.953125q-1.234375 0 -2.21875 -0.515625q-0.96875 -0.53125 -1.59375 -1.3125l0 7.0625l-2.46875 0zm2.234375 -12.734375q0 2.796875 1.125 4.140625q1.140625 1.328125 2.75 1.328125q1.640625 0 2.8125 -1.375q1.171875 -1.390625 1.171875 -4.3125q0 -2.765625 -1.140625 -4.140625q-1.140625 -1.390625 -2.734375 -1.390625q-1.5625 0 -2.78125 1.46875q-1.203125 1.46875 -1.203125 4.28125zm12.353516 2.84375l2.4375 -0.390625q0.203125 1.46875 1.140625 2.25q0.9375 0.765625 2.625 0.765625q1.6875 0 2.5 -0.6875q0.828125 -0.6875 0.828125 -1.609375q0 -0.84375 -0.71875 -1.3125q-0.515625 -0.328125 -2.515625 -0.84375q-2.71875 -0.6875 -3.765625 -1.171875q-1.03125 -0.5 -1.578125 -1.375q-0.546875 -0.890625 -0.546875 -1.96875q0 -0.96875 0.4375 -1.796875q0.453125 -0.828125 1.21875 -1.375q0.578125 -0.421875 1.5625 -0.703125q1.0 -0.296875 2.140625 -0.296875q1.703125 0 2.984375 0.5q1.296875 0.484375 1.90625 1.328125q0.625 0.828125 0.859375 2.234375l-2.40625 0.328125q-0.171875 -1.109375 -0.953125 -1.734375q-0.78125 -0.640625 -2.21875 -0.640625q-1.703125 0 -2.421875 0.5625q-0.71875 0.5625 -0.71875 1.3125q0 0.484375 0.296875 0.859375q0.296875 0.40625 0.9375 0.65625q0.375 0.140625 2.171875 0.625q2.625 0.703125 3.65625 1.15625q1.03125 0.4375 1.609375 1.28125q0.59375 0.84375 0.59375 2.109375q0 1.234375 -0.71875 2.328125q-0.71875 1.078125 -2.078125 1.671875q-1.34375 0.59375 -3.0625 0.59375q-2.828125 0 -4.3125 -1.171875q-1.484375 -1.1875 -1.890625 -3.484375zm20.359375 2.125l0.359375 2.171875q-1.046875 0.21875 -1.859375 0.21875q-1.34375 0 -2.078125 -0.421875q-0.734375 -0.421875 -1.046875 -1.109375q-0.296875 -0.6875 -0.296875 -2.90625l0 -8.359375l-1.796875 0l0 -1.90625l1.796875 0l0 -3.59375l2.453125 -1.484375l0 5.078125l2.46875 0l0 1.90625l-2.46875 0l0 8.5q0 1.046875 0.125 1.34375q0.125 0.296875 0.421875 0.484375q0.296875 0.171875 0.84375 0.171875q0.40625 0 1.078125 -0.09375zm2.3730469 2.203125l0 -14.515625l2.21875 0l0 2.203125q0.84375 -1.546875 1.5625 -2.03125q0.71875 -0.5 1.578125 -0.5q1.25 0 2.53125 0.78125l-0.84375 2.296875q-0.90625 -0.546875 -1.796875 -0.546875q-0.8125 0 -1.453125 0.5q-0.640625 0.484375 -0.921875 1.34375q-0.40625 1.3125 -0.40625 2.859375l0 7.609375l-2.46875 0zm19.292969 -4.671875l2.546875 0.3125q-0.59375 2.21875 -2.234375 3.453125q-1.625 1.234375 -4.15625 1.234375q-3.171875 0 -5.046875 -1.953125q-1.859375 -1.96875 -1.859375 -5.515625q0 -3.65625 1.875 -5.671875q1.890625 -2.03125 4.90625 -2.03125q2.90625 0 4.75 1.984375q1.84375 1.96875 1.84375 5.578125q0 0.21875 -0.015625 0.65625l-10.828125 0q0.140625 2.390625 1.359375 3.65625q1.21875 1.265625 3.03125 1.265625q1.359375 0 2.3125 -0.703125q0.953125 -0.71875 1.515625 -2.265625zm-8.078125 -3.984375l8.109375 0q-0.15625 -1.828125 -0.921875 -2.75q-1.1875 -1.421875 -3.0625 -1.421875q-1.6875 0 -2.84375 1.140625q-1.15625 1.125 -1.28125 3.03125zm23.197266 6.859375q-1.375 1.171875 -2.640625 1.65625q-1.265625 0.46875 -2.71875 0.46875q-2.390625 0 -3.671875 -1.171875q-1.28125 -1.171875 -1.28125 -2.984375q0 -1.0625 0.484375 -1.9375q0.484375 -0.890625 1.265625 -1.421875q0.796875 -0.53125 1.78125 -0.8125q0.71875 -0.1875 2.1875 -0.375q2.96875 -0.34375 4.375 -0.84375q0.015625 -0.5 0.015625 -0.640625q0 -1.5 -0.6875 -2.125q-0.953125 -0.828125 -2.8125 -0.828125q-1.734375 0 -2.5625 0.609375q-0.828125 0.609375 -1.21875 2.15625l-2.40625 -0.328125q0.328125 -1.546875 1.078125 -2.5q0.75 -0.953125 2.171875 -1.453125q1.421875 -0.515625 3.296875 -0.515625q1.859375 0 3.015625 0.4375q1.171875 0.4375 1.71875 1.109375q0.546875 0.65625 0.765625 1.65625q0.125 0.640625 0.125 2.28125l0 3.28125q0 3.421875 0.15625 4.34375q0.15625 0.90625 0.625 1.734375l-2.578125 0q-0.375 -0.765625 -0.484375 -1.796875zm-0.21875 -5.484375q-1.328125 0.546875 -4.015625 0.921875q-1.515625 0.21875 -2.140625 0.5q-0.625 0.265625 -0.96875 0.796875q-0.34375 0.515625 -0.34375 1.171875q0 0.984375 0.734375 1.640625q0.75 0.65625 2.1875 0.65625q1.421875 0 2.53125 -0.625q1.109375 -0.625 1.625 -1.703125q0.390625 -0.84375 0.390625 -2.46875l0 -0.890625zm6.3066406 7.28125l0 -14.515625l2.203125 0l0 2.03125q0.6875 -1.0625 1.8125 -1.703125q1.140625 -0.65625 2.59375 -0.65625q1.609375 0 2.640625 0.671875q1.03125 0.65625 1.453125 1.859375q1.734375 -2.53125 4.484375 -2.53125q2.171875 0 3.328125 1.203125q1.15625 1.1875 1.15625 3.671875l0 9.96875l-2.4375 0l0 -9.140625q0 -1.484375 -0.25 -2.125q-0.234375 -0.65625 -0.859375 -1.046875q-0.625 -0.40625 -1.484375 -0.40625q-1.53125 0 -2.546875 1.03125q-1.0 1.015625 -1.0 3.25l0 8.4375l-2.46875 0l0 -9.4375q0 -1.640625 -0.609375 -2.453125q-0.59375 -0.828125 -1.953125 -0.828125q-1.046875 0 -1.9375 0.546875q-0.875 0.546875 -1.265625 1.609375q-0.390625 1.046875 -0.390625 3.03125l0 7.53125l-2.46875 0z" fill-rule="nonzero"/><path fill="#000000" fill-opacity="0.0" d="m363.958 90.03544l193.57483 120.25196" fill-rule="evenodd"/><path stroke="#ff0000" stroke-width="3.0" stroke-linejoin="round" stroke-linecap="butt" d="m363.958 90.035446l178.28491 110.7536" fill-rule="evenodd"/><path fill="#ff0000" stroke="#ff0000" stroke-width="3.0" stroke-linecap="butt" d="m539.6281 204.99818l14.179321 2.974945l-8.949768 -11.393219z" fill-rule="evenodd"/><path fill="#000000" fill-opacity="0.0" d="m614.7113 63.767723l-3.0551147 146.51968" fill-rule="evenodd"/><path stroke="#ff0000" stroke-width="3.0" stroke-linejoin="round" stroke-linecap="butt" d="m614.7113 63.767723l-2.6798706 128.52359" fill-rule="evenodd"/><path fill="#ff0000" stroke="#ff0000" stroke-width="3.0" stroke-linecap="butt" d="m607.0773 192.18802l4.670349 13.71463l5.237915 -13.508041z" fill-rule="evenodd"/><path fill="#000000" fill-opacity="0.0" d="m822.93964 123.02494l-105.700806 95.05512" fill-rule="evenodd"/><path stroke="#ff0000" stroke-width="3.0" stroke-linejoin="round" stroke-linecap="butt" d="m822.93964 123.02495l-92.31677 83.01904" fill-rule="evenodd"/><path fill="#ff0000" stroke="#ff0000" stroke-width="3.0" stroke-linecap="butt" d="m727.3095 202.3595l-6.8096313 12.787964l13.436401 -5.4190063z" fill-rule="evenodd"/><path fill="#000000" fill-opacity="0.0" d="m909.4593 229.34515l-192.22046 39.46457" fill-rule="evenodd"/><path stroke="#ff0000" stroke-width="3.0" stroke-linejoin="round" stroke-linecap="butt" d="m909.4593 229.34514l-174.58826 35.84453" fill-rule="evenodd"/><path fill="#ff0000" stroke="#ff0000" stroke-width="3.0" stroke-linecap="butt" d="m733.8745 260.3357l-12.3396 7.59198l14.332703 2.1159363z" fill-rule="evenodd"/><path fill="#000000" fill-opacity="0.0" d="m856.6693 339.32416l-148.62994 -31.055115" fill-rule="evenodd"/><path stroke="#ff0000" stroke-width="3.0" stroke-linejoin="round" stroke-linecap="butt" d="m856.6693 339.32416l-131.01044 -27.373657" fill-rule="evenodd"/><path fill="#ff0000" stroke="#ff0000" stroke-width="3.0" stroke-linecap="butt" d="m726.67236 307.10004l-14.339966 2.065979l12.312988 7.634918z" fill-rule="evenodd"/><path fill="#000000" fill-opacity="0.0" d="m839.07086 475.6995l-155.81104 -132.1575" fill-rule="evenodd"/><path stroke="#ff0000" stroke-width="3.0" stroke-linejoin="round" stroke-linecap="butt" d="m839.07086 475.69946l-142.08392 -120.51422" fill-rule="evenodd"/><path fill="#ff0000" stroke="#ff0000" stroke-width="3.0" stroke-linecap="butt" d="m700.19226 351.4063l-13.587769 -5.0274353l7.177246 12.585297z" fill-rule="evenodd"/><path fill="#000000" fill-opacity="0.0" d="m608.03546 526.2727l11.24408 -187.65356" fill-rule="evenodd"/><path stroke="#ff0000" stroke-width="3.0" stroke-linejoin="round" stroke-linecap="butt" d="m608.03546 526.2727l10.16748 -169.68576" fill-rule="evenodd"/><path fill="#ff0000" stroke="#ff0000" stroke-width="3.0" stroke-linecap="butt" d="m623.14923 356.8833l-4.132019 -13.8862915l-5.76062 13.293549z" fill-rule="evenodd"/><path fill="#000000" fill-opacity="0.0" d="m732.0236 587.1457l-75.1181 -237.54333" fill-rule="evenodd"/><path stroke="#ff0000" stroke-width="3.0" stroke-linejoin="round" stroke-linecap="butt" d="m732.0236 587.1457l-69.69092 -220.38101" fill-rule="evenodd"/><path fill="#ff0000" stroke="#ff0000" stroke-width="3.0" stroke-linecap="butt" d="m667.0573 365.27063l-8.829468 -11.486664l-0.61968994 14.474762z" fill-rule="evenodd"/><path fill="#cfe2f3" d="m712.9611 609.1366l0 0c0 -15.385681 12.472595 -27.858215 27.858276 -27.858215c15.385681 0 27.858276 12.472534 27.858276 27.858215c0 15.385742 -12.472595 27.858276 -27.858276 27.858276c-15.385681 0 -27.858276 -12.472534 -27.858276 -27.858276z" fill-rule="evenodd"/><path fill="#a5b4c2" d="m728.99255 600.80493c0 -1.6026611 1.2991943 -2.9019165 2.9019165 -2.9019165c1.6026611 0 2.9018555 1.2992554 2.9018555 2.9019165c0 1.6026611 -1.2991943 2.9019165 -2.9018555 2.9019165c-1.6027222 0 -2.9019165 -1.2992554 -2.9019165 -2.9019165m17.849915 0c0 -1.6026611 1.2992554 -2.9019165 2.9019165 -2.9019165c1.6026611 0 2.9019165 1.2992554 2.9019165 2.9019165c0 1.6026611 -1.2992554 2.9019165 -2.9019165 2.9019165c-1.6026611 0 -2.9019165 -1.2992554 -2.9019165 -2.9019165" fill-rule="evenodd"/><path fill="#000000" fill-opacity="0.0" d="m725.72003 621.2858q15.099365 10.369934 30.163452 0" fill-rule="evenodd"/><path fill="#000000" fill-opacity="0.0" d="m712.9611 609.1366l0 0c0 -15.385681 12.472595 -27.858215 27.858276 -27.858215c15.385681 0 27.858276 12.472534 27.858276 27.858215c0 15.385742 -12.472595 27.858276 -27.858276 27.858276c-15.385681 0 -27.858276 -12.472534 -27.858276 -27.858276z" fill-rule="evenodd"/><path stroke="#000000" stroke-width="1.0" stroke-linejoin="round" stroke-linecap="butt" d="m728.99255 600.80493c0 -1.6026611 1.2991943 -2.9019165 2.9019165 -2.9019165c1.6026611 0 2.9018555 1.2992554 2.9018555 2.9019165c0 1.6026611 -1.2991943 2.9019165 -2.9018555 2.9019165c-1.6027222 0 -2.9019165 -1.2992554 -2.9019165 -2.9019165m17.849915 0c0 -1.6026611 1.2992554 -2.9019165 2.9019165 -2.9019165c1.6026611 0 2.9019165 1.2992554 2.9019165 2.9019165c0 1.6026611 -1.2992554 2.9019165 -2.9019165 2.9019165c-1.6026611 0 -2.9019165 -1.2992554 -2.9019165 -2.9019165" fill-rule="evenodd"/><path stroke="#000000" stroke-width="1.0" stroke-linejoin="round" stroke-linecap="butt" d="m725.72003 621.2858q15.099365 10.369934 30.163452 0" fill-rule="evenodd"/><path stroke="#000000" stroke-width="1.0" stroke-linejoin="round" stroke-linecap="butt" d="m712.9611 609.1366l0 0c0 -15.385681 12.472595 -27.858215 27.858276 -27.858215c15.385681 0 27.858276 12.472534 27.858276 27.858215c0 15.385742 -12.472595 27.858276 -27.858276 27.858276c-15.385681 0 -27.858276 -12.472534 -27.858276 -27.858276z" fill-rule="evenodd"/><path fill="#cfe2f3" d="m815.06085 478.6222l0 0c0 -15.385712 12.472595 -27.858276 27.858276 -27.858276c15.385742 0 27.858276 12.472565 27.858276 27.858276c0 15.385681 -12.472534 27.858276 -27.858276 27.858276c-15.385681 0 -27.858276 -12.472595 -27.858276 -27.858276z" fill-rule="evenodd"/><path fill="#a5b4c2" d="m831.0923 470.2905c0 -1.6026611 1.2991943 -2.901886 2.9019165 -2.901886c1.6026611 0 2.9018555 1.2992249 2.9018555 2.901886c0 1.6026917 -1.2991943 2.9019165 -2.9018555 2.9019165c-1.6027222 0 -2.9019165 -1.2992249 -2.9019165 -2.9019165m17.849915 0c0 -1.6026611 1.2992554 -2.901886 2.9019165 -2.901886c1.6026611 0 2.9019165 1.2992249 2.9019165 2.901886c0 1.6026917 -1.2992554 2.9019165 -2.9019165 2.9019165c-1.6026611 0 -2.9019165 -1.2992249 -2.9019165 -2.9019165" fill-rule="evenodd"/><path fill="#000000" fill-opacity="0.0" d="m827.81976 490.77136q15.099365 10.369965 30.163513 0" fill-rule="evenodd"/><path fill="#000000" fill-opacity="0.0" d="m815.06085 478.6222l0 0c0 -15.385712 12.472595 -27.858276 27.858276 -27.858276c15.385742 0 27.858276 12.472565 27.858276 27.858276c0 15.385681 -12.472534 27.858276 -27.858276 27.858276c-15.385681 0 -27.858276 -12.472595 -27.858276 -27.858276z" fill-rule="evenodd"/><path stroke="#000000" stroke-width="1.0" stroke-linejoin="round" stroke-linecap="butt" d="m831.0923 470.2905c0 -1.6026611 1.2991943 -2.901886 2.9019165 -2.901886c1.6026611 0 2.9018555 1.2992249 2.9018555 2.901886c0 1.6026917 -1.2991943 2.9019165 -2.9018555 2.9019165c-1.6027222 0 -2.9019165 -1.2992249 -2.9019165 -2.9019165m17.849915 0c0 -1.6026611 1.2992554 -2.901886 2.9019165 -2.901886c1.6026611 0 2.9019165 1.2992249 2.9019165 2.901886c0 1.6026917 -1.2992554 2.9019165 -2.9019165 2.9019165c-1.6026611 0 -2.9019165 -1.2992249 -2.9019165 -2.9019165" fill-rule="evenodd"/><path stroke="#000000" stroke-width="1.0" stroke-linejoin="round" stroke-linecap="butt" d="m827.81976 490.77136q15.099365 10.369965 30.163513 0" fill-rule="evenodd"/><path stroke="#000000" stroke-width="1.0" stroke-linejoin="round" stroke-linecap="butt" d="m815.06085 478.6222l0 0c0 -15.385712 12.472595 -27.858276 27.858276 -27.858276c15.385742 0 27.858276 12.472565 27.858276 27.858276c0 15.385681 -12.472534 27.858276 -27.858276 27.858276c-15.385681 0 -27.858276 -12.472595 -27.858276 -27.858276z" fill-rule="evenodd"/><path fill="#cfe2f3" d="m580.8181 534.33875l0 0c0 -15.385742 12.472534 -27.858276 27.858276 -27.858276c15.385681 0 27.858215 12.472534 27.858215 27.858276c0 15.385681 -12.472534 27.858276 -27.858215 27.858276c-15.385742 0 -27.858276 -12.472595 -27.858276 -27.858276z" fill-rule="evenodd"/><path fill="#a5b4c2" d="m596.8495 526.007c0 -1.6026611 1.2992554 -2.9018555 2.9019165 -2.9018555c1.6026611 0 2.9019165 1.2991943 2.9019165 2.9018555c0 1.6027222 -1.2992554 2.9019165 -2.9019165 2.9019165c-1.6026611 0 -2.9019165 -1.2991943 -2.9019165 -2.9019165m17.849915 0c0 -1.6026611 1.2992554 -2.9018555 2.9019165 -2.9018555c1.6026611 0 2.9019165 1.2991943 2.9019165 2.9018555c0 1.6027222 -1.2992554 2.9019165 -2.9019165 2.9019165c-1.6026611 0 -2.9019165 -1.2991943 -2.9019165 -2.9019165" fill-rule="evenodd"/><path fill="#000000" fill-opacity="0.0" d="m593.577 546.4879q15.099365 10.369934 30.163452 0" fill-rule="evenodd"/><path fill="#000000" fill-opacity="0.0" d="m580.8181 534.33875l0 0c0 -15.385742 12.472534 -27.858276 27.858276 -27.858276c15.385681 0 27.858215 12.472534 27.858215 27.858276c0 15.385681 -12.472534 27.858276 -27.858215 27.858276c-15.385742 0 -27.858276 -12.472595 -27.858276 -27.858276z" fill-rule="evenodd"/><path stroke="#000000" stroke-width="1.0" stroke-linejoin="round" stroke-linecap="butt" d="m596.8495 526.007c0 -1.6026611 1.2992554 -2.9018555 2.9019165 -2.9018555c1.6026611 0 2.9019165 1.2991943 2.9019165 2.9018555c0 1.6027222 -1.2992554 2.9019165 -2.9019165 2.9019165c-1.6026611 0 -2.9019165 -1.2991943 -2.9019165 -2.9019165m17.849915 0c0 -1.6026611 1.2992554 -2.9018555 2.9019165 -2.9018555c1.6026611 0 2.9019165 1.2991943 2.9019165 2.9018555c0 1.6027222 -1.2992554 2.9019165 -2.9019165 2.9019165c-1.6026611 0 -2.9019165 -1.2991943 -2.9019165 -2.9019165" fill-rule="evenodd"/><path stroke="#000000" stroke-width="1.0" stroke-linejoin="round" stroke-linecap="butt" d="m593.577 546.4879q15.099365 10.369934 30.163452 0" fill-rule="evenodd"/><path stroke="#000000" stroke-width="1.0" stroke-linejoin="round" stroke-linecap="butt" d="m580.8181 534.33875l0 0c0 -15.385742 12.472534 -27.858276 27.858276 -27.858276c15.385681 0 27.858215 12.472534 27.858215 27.858276c0 15.385681 -12.472534 27.858276 -27.858215 27.858276c-15.385742 0 -27.858276 -12.472595 -27.858276 -27.858276z" fill-rule="evenodd"/><path fill="#cfe2f3" d="m338.8824 95.1655l0 0c0 -15.385696 12.472595 -27.858269 27.858276 -27.858269c15.385712 0 27.858276 12.472572 27.858276 27.858269c0 15.385696 -12.472565 27.858269 -27.858276 27.858269c-15.385681 0 -27.858276 -12.472572 -27.858276 -27.858269z" fill-rule="evenodd"/><path fill="#a5b4c2" d="m354.9138 86.83381c0 -1.6026764 1.2992249 -2.9019012 2.9019165 -2.9019012c1.6026917 0 2.9019165 1.2992249 2.9019165 2.9019012c0 1.6026764 -1.2992249 2.9019089 -2.9019165 2.9019089c-1.6026917 0 -2.9019165 -1.2992325 -2.9019165 -2.9019089m17.849945 0c0 -1.6026764 1.2992249 -2.9019012 2.901886 -2.9019012c1.6026917 0 2.9019165 1.2992249 2.9019165 2.9019012c0 1.6026764 -1.2992249 2.9019089 -2.9019165 2.9019089c-1.6026611 0 -2.901886 -1.2992325 -2.901886 -2.9019089" fill-rule="evenodd"/><path fill="#000000" fill-opacity="0.0" d="m351.6413 107.314674q15.099365 10.369965 30.163483 0" fill-rule="evenodd"/><path fill="#000000" fill-opacity="0.0" d="m338.8824 95.1655l0 0c0 -15.385696 12.472595 -27.858269 27.858276 -27.858269c15.385712 0 27.858276 12.472572 27.858276 27.858269c0 15.385696 -12.472565 27.858269 -27.858276 27.858269c-15.385681 0 -27.858276 -12.472572 -27.858276 -27.858269z" fill-rule="evenodd"/><path stroke="#000000" stroke-width="1.0" stroke-linejoin="round" stroke-linecap="butt" d="m354.9138 86.83381c0 -1.6026764 1.2992249 -2.9019012 2.9019165 -2.9019012c1.6026917 0 2.9019165 1.2992249 2.9019165 2.9019012c0 1.6026764 -1.2992249 2.9019089 -2.9019165 2.9019089c-1.6026917 0 -2.9019165 -1.2992325 -2.9019165 -2.9019089m17.849945 0c0 -1.6026764 1.2992249 -2.9019012 2.901886 -2.9019012c1.6026917 0 2.9019165 1.2992249 2.9019165 2.9019012c0 1.6026764 -1.2992249 2.9019089 -2.9019165 2.9019089c-1.6026611 0 -2.901886 -1.2992325 -2.901886 -2.9019089" fill-rule="evenodd"/><path stroke="#000000" stroke-width="1.0" stroke-linejoin="round" stroke-linecap="butt" d="m351.6413 107.314674q15.099365 10.369965 30.163483 0" fill-rule="evenodd"/><path stroke="#000000" stroke-width="1.0" stroke-linejoin="round" stroke-linecap="butt" d="m338.8824 95.1655l0 0c0 -15.385696 12.472595 -27.858269 27.858276 -27.858269c15.385712 0 27.858276 12.472572 27.858276 27.858269c0 15.385696 -12.472565 27.858269 -27.858276 27.858269c-15.385681 0 -27.858276 -12.472572 -27.858276 -27.858269z" fill-rule="evenodd"/><path fill="#cfe2f3" d="m585.801 62.175995l0 0c0 -15.385696 12.472595 -27.858265 27.858276 -27.858265c15.385681 0 27.858276 12.4725685 27.858276 27.858265c0 15.385696 -12.472595 27.858269 -27.858276 27.858269c-15.385681 0 -27.858276 -12.472572 -27.858276 -27.858269z" fill-rule="evenodd"/><path fill="#a5b4c2" d="m601.83246 53.84431c0 -1.6026764 1.2991943 -2.901905 2.9018555 -2.901905c1.6027222 0 2.9019165 1.2992287 2.9019165 2.901905c0 1.6026764 -1.2991943 2.9019012 -2.9019165 2.9019012c-1.6026611 0 -2.9018555 -1.2992249 -2.9018555 -2.9019012m17.849915 0c0 -1.6026764 1.2991943 -2.901905 2.9019165 -2.901905c1.6026611 0 2.9018555 1.2992287 2.9018555 2.901905c0 1.6026764 -1.2991943 2.9019012 -2.9018555 2.9019012c-1.6027222 0 -2.9019165 -1.2992249 -2.9019165 -2.9019012" fill-rule="evenodd"/><path fill="#000000" fill-opacity="0.0" d="m598.55994 74.32517q15.099365 10.369965 30.163452 0" fill-rule="evenodd"/><path fill="#000000" fill-opacity="0.0" d="m585.801 62.175995l0 0c0 -15.385696 12.472595 -27.858265 27.858276 -27.858265c15.385681 0 27.858276 12.4725685 27.858276 27.858265c0 15.385696 -12.472595 27.858269 -27.858276 27.858269c-15.385681 0 -27.858276 -12.472572 -27.858276 -27.858269z" fill-rule="evenodd"/><path stroke="#000000" stroke-width="1.0" stroke-linejoin="round" stroke-linecap="butt" d="m601.83246 53.84431c0 -1.6026764 1.2991943 -2.901905 2.9018555 -2.901905c1.6027222 0 2.9019165 1.2992287 2.9019165 2.901905c0 1.6026764 -1.2991943 2.9019012 -2.9019165 2.9019012c-1.6026611 0 -2.9018555 -1.2992249 -2.9018555 -2.9019012m17.849915 0c0 -1.6026764 1.2991943 -2.901905 2.9019165 -2.901905c1.6026611 0 2.9018555 1.2992287 2.9018555 2.901905c0 1.6026764 -1.2991943 2.9019012 -2.9018555 2.9019012c-1.6027222 0 -2.9019165 -1.2992249 -2.9019165 -2.9019012" fill-rule="evenodd"/><path stroke="#000000" stroke-width="1.0" stroke-linejoin="round" stroke-linecap="butt" d="m598.55994 74.32517q15.099365 10.369965 30.163452 0" fill-rule="evenodd"/><path stroke="#000000" stroke-width="1.0" stroke-linejoin="round" stroke-linecap="butt" d="m585.801 62.175995l0 0c0 -15.385696 12.472595 -27.858265 27.858276 -27.858265c15.385681 0 27.858276 12.4725685 27.858276 27.858265c0 15.385696 -12.472595 27.858269 -27.858276 27.858269c-15.385681 0 -27.858276 -12.472572 -27.858276 -27.858269z" fill-rule="evenodd"/><path fill="#cfe2f3" d="m800.95325 109.910904l0 0c0 -15.385696 12.472595 -27.858269 27.858276 -27.858269c15.385681 0 27.858276 12.472572 27.858276 27.858269c0 15.385696 -12.472595 27.858261 -27.858276 27.858261c-15.385681 0 -27.858276 -12.472565 -27.858276 -27.858261z" fill-rule="evenodd"/><path fill="#a5b4c2" d="m816.9847 101.579216c0 -1.6026764 1.2991943 -2.9019012 2.9019165 -2.9019012c1.6026611 0 2.9018555 1.2992249 2.9018555 2.9019012c0 1.6026764 -1.2991943 2.9019089 -2.9018555 2.9019089c-1.6027222 0 -2.9019165 -1.2992325 -2.9019165 -2.9019089m17.849915 0c0 -1.6026764 1.2992554 -2.9019012 2.9019165 -2.9019012c1.6026611 0 2.9019165 1.2992249 2.9019165 2.9019012c0 1.6026764 -1.2992554 2.9019089 -2.9019165 2.9019089c-1.6026611 0 -2.9019165 -1.2992325 -2.9019165 -2.9019089" fill-rule="evenodd"/><path fill="#000000" fill-opacity="0.0" d="m813.71216 122.06008q15.099365 10.369957 30.163452 0" fill-rule="evenodd"/><path fill="#000000" fill-opacity="0.0" d="m800.95325 109.910904l0 0c0 -15.385696 12.472595 -27.858269 27.858276 -27.858269c15.385681 0 27.858276 12.472572 27.858276 27.858269c0 15.385696 -12.472595 27.858261 -27.858276 27.858261c-15.385681 0 -27.858276 -12.472565 -27.858276 -27.858261z" fill-rule="evenodd"/><path stroke="#000000" stroke-width="1.0" stroke-linejoin="round" stroke-linecap="butt" d="m816.9847 101.579216c0 -1.6026764 1.2991943 -2.9019012 2.9019165 -2.9019012c1.6026611 0 2.9018555 1.2992249 2.9018555 2.9019012c0 1.6026764 -1.2991943 2.9019089 -2.9018555 2.9019089c-1.6027222 0 -2.9019165 -1.2992325 -2.9019165 -2.9019089m17.849915 0c0 -1.6026764 1.2992554 -2.9019012 2.9019165 -2.9019012c1.6026611 0 2.9019165 1.2992249 2.9019165 2.9019012c0 1.6026764 -1.2992554 2.9019089 -2.9019165 2.9019089c-1.6026611 0 -2.9019165 -1.2992325 -2.9019165 -2.9019089" fill-rule="evenodd"/><path stroke="#000000" stroke-width="1.0" stroke-linejoin="round" stroke-linecap="butt" d="m813.71216 122.06008q15.099365 10.369957 30.163452 0" fill-rule="evenodd"/><path stroke="#000000" stroke-width="1.0" stroke-linejoin="round" stroke-linecap="butt" d="m800.95325 109.910904l0 0c0 -15.385696 12.472595 -27.858269 27.858276 -27.858269c15.385681 0 27.858276 12.472572 27.858276 27.858269c0 15.385696 -12.472595 27.858261 -27.858276 27.858261c-15.385681 0 -27.858276 -12.472565 -27.858276 -27.858261z" fill-rule="evenodd"/><path fill="#cfe2f3" d="m885.21313 224.15762l0 0c0 -15.385696 12.472534 -27.858261 27.858215 -27.858261c15.385742 0 27.858276 12.472565 27.858276 27.858261c0 15.385696 -12.472534 27.858261 -27.858276 27.858261c-15.385681 0 -27.858215 -12.472565 -27.858215 -27.858261z" fill-rule="evenodd"/><path fill="#a5b4c2" d="m901.2445 215.82594c0 -1.6026764 1.2992554 -2.9019012 2.9019165 -2.9019012c1.6026611 0 2.9019165 1.2992249 2.9019165 2.9019012c0 1.6026764 -1.2992554 2.9019012 -2.9019165 2.9019012c-1.6026611 0 -2.9019165 -1.2992249 -2.9019165 -2.9019012m17.849915 0c0 -1.6026764 1.2992554 -2.9019012 2.9019165 -2.9019012c1.6026611 0 2.9019165 1.2992249 2.9019165 2.9019012c0 1.6026764 -1.2992554 2.9019012 -2.9019165 2.9019012c-1.6026611 0 -2.9019165 -1.2992249 -2.9019165 -2.9019012" fill-rule="evenodd"/><path fill="#000000" fill-opacity="0.0" d="m897.972 236.3068q15.099365 10.369965 30.163513 0" fill-rule="evenodd"/><path fill="#000000" fill-opacity="0.0" d="m885.21313 224.15762l0 0c0 -15.385696 12.472534 -27.858261 27.858215 -27.858261c15.385742 0 27.858276 12.472565 27.858276 27.858261c0 15.385696 -12.472534 27.858261 -27.858276 27.858261c-15.385681 0 -27.858215 -12.472565 -27.858215 -27.858261z" fill-rule="evenodd"/><path stroke="#000000" stroke-width="1.0" stroke-linejoin="round" stroke-linecap="butt" d="m901.2445 215.82594c0 -1.6026764 1.2992554 -2.9019012 2.9019165 -2.9019012c1.6026611 0 2.9019165 1.2992249 2.9019165 2.9019012c0 1.6026764 -1.2992554 2.9019012 -2.9019165 2.9019012c-1.6026611 0 -2.9019165 -1.2992249 -2.9019165 -2.9019012m17.849915 0c0 -1.6026764 1.2992554 -2.9019012 2.9019165 -2.9019012c1.6026611 0 2.9019165 1.2992249 2.9019165 2.9019012c0 1.6026764 -1.2992554 2.9019012 -2.9019165 2.9019012c-1.6026611 0 -2.9019165 -1.2992249 -2.9019165 -2.9019012" fill-rule="evenodd"/><path stroke="#000000" stroke-width="1.0" stroke-linejoin="round" stroke-linecap="butt" d="m897.972 236.3068q15.099365 10.369965 30.163513 0" fill-rule="evenodd"/><path stroke="#000000" stroke-width="1.0" stroke-linejoin="round" stroke-linecap="butt" d="m885.21313 224.15762l0 0c0 -15.385696 12.472534 -27.858261 27.858215 -27.858261c15.385742 0 27.858276 12.472565 27.858276 27.858261c0 15.385696 -12.472534 27.858261 -27.858276 27.858261c-15.385681 0 -27.858215 -12.472565 -27.858215 -27.858261z" fill-rule="evenodd"/><path fill="#cfe2f3" d="m828.48346 336.12613l0 0c0 -15.385712 12.472534 -27.858276 27.858276 -27.858276c15.385681 0 27.858276 12.472565 27.858276 27.858276c0 15.385681 -12.472595 27.858276 -27.858276 27.858276c-15.385742 0 -27.858276 -12.472595 -27.858276 -27.858276z" fill-rule="evenodd"/><path fill="#a5b4c2" d="m844.51483 327.79443c0 -1.6026611 1.2992554 -2.901886 2.9019165 -2.901886c1.6026611 0 2.9019165 1.2992249 2.9019165 2.901886c0 1.6026917 -1.2992554 2.9019165 -2.9019165 2.9019165c-1.6026611 0 -2.9019165 -1.2992249 -2.9019165 -2.9019165m17.849976 0c0 -1.6026611 1.2991943 -2.901886 2.9018555 -2.901886c1.6027222 0 2.9019165 1.2992249 2.9019165 2.901886c0 1.6026917 -1.2991943 2.9019165 -2.9019165 2.9019165c-1.6026611 0 -2.9018555 -1.2992249 -2.9018555 -2.9019165" fill-rule="evenodd"/><path fill="#000000" fill-opacity="0.0" d="m841.2424 348.2753q15.099365 10.369965 30.163452 0" fill-rule="evenodd"/><path fill="#000000" fill-opacity="0.0" d="m828.48346 336.12613l0 0c0 -15.385712 12.472534 -27.858276 27.858276 -27.858276c15.385681 0 27.858276 12.472565 27.858276 27.858276c0 15.385681 -12.472595 27.858276 -27.858276 27.858276c-15.385742 0 -27.858276 -12.472595 -27.858276 -27.858276z" fill-rule="evenodd"/><path stroke="#000000" stroke-width="1.0" stroke-linejoin="round" stroke-linecap="butt" d="m844.51483 327.79443c0 -1.6026611 1.2992554 -2.901886 2.9019165 -2.901886c1.6026611 0 2.9019165 1.2992249 2.9019165 2.901886c0 1.6026917 -1.2992554 2.9019165 -2.9019165 2.9019165c-1.6026611 0 -2.9019165 -1.2992249 -2.9019165 -2.9019165m17.849976 0c0 -1.6026611 1.2991943 -2.901886 2.9018555 -2.901886c1.6027222 0 2.9019165 1.2992249 2.9019165 2.901886c0 1.6026917 -1.2991943 2.9019165 -2.9019165 2.9019165c-1.6026611 0 -2.9018555 -1.2992249 -2.9018555 -2.9019165" fill-rule="evenodd"/><path stroke="#000000" stroke-width="1.0" stroke-linejoin="round" stroke-linecap="butt" d="m841.2424 348.2753q15.099365 10.369965 30.163452 0" fill-rule="evenodd"/><path stroke="#000000" stroke-width="1.0" stroke-linejoin="round" stroke-linecap="butt" d="m828.48346 336.12613l0 0c0 -15.385712 12.472534 -27.858276 27.858276 -27.858276c15.385681 0 27.858276 12.472565 27.858276 27.858276c0 15.385681 -12.472595 27.858276 -27.858276 27.858276c-15.385742 0 -27.858276 -12.472595 -27.858276 -27.858276z" fill-rule="evenodd"/></g></svg>